<?xml version="1.0" encoding="UTF-8" standalone="no"?>
<!-- Created with Inkscape (http://www.inkscape.org/) -->

<svg
   xmlns:dc="http://purl.org/dc/elements/1.1/"
   xmlns:cc="http://creativecommons.org/ns#"
   xmlns:rdf="http://www.w3.org/1999/02/22-rdf-syntax-ns#"
   xmlns:svg="http://www.w3.org/2000/svg"
   xmlns="http://www.w3.org/2000/svg"
   xmlns:sodipodi="http://sodipodi.sourceforge.net/DTD/sodipodi-0.dtd"
   xmlns:inkscape="http://www.inkscape.org/namespaces/inkscape"
   width="15mm"
   height="14.999994mm"
   viewBox="0 0 15 14.999994"
   version="1.1"
   id="svg8"
   inkscape:version="0.92.3 (5aff6ba, 2018-11-25)"
   sodipodi:docname="barometer.svg">
  <sodipodi:namedview
     id="base"
     pagecolor="#ffffff"
     bordercolor="#666666"
     borderopacity="1.0"
     inkscape:pageopacity="0.0"
     inkscape:pageshadow="2"
     inkscape:zoom="8"
     inkscape:cx="16.450279"
     inkscape:cy="30.018177"
     inkscape:document-units="mm"
     inkscape:current-layer="layer1"
     showgrid="false"
     inkscape:window-width="1315"
     inkscape:window-height="744"
     inkscape:window-x="51"
     inkscape:window-y="24"
     inkscape:window-maximized="1"
     inkscape:measure-start="4.15425,57.8502"
     inkscape:measure-end="0,56.6929"
     showguides="false">
    <sodipodi:guide
       position="0,2.5000043"
       orientation="1,0"
       id="guide821"
       inkscape:locked="false" />
  </sodipodi:namedview>
  <defs
     id="defs2" />
  <metadata
     id="metadata5">
    <rdf:RDF>
      <cc:Work
         rdf:about="">
        <dc:format>image/svg+xml</dc:format>
        <dc:type
           rdf:resource="http://purl.org/dc/dcmitype/StillImage" />
        <dc:title />
      </cc:Work>
    </rdf:RDF>
  </metadata>
  <g
     transform="translate(-4.6977514,-257.26971)"
     id="layer1"
     inkscape:groupmode="layer"
     inkscape:label="Border">
    <path
       id="path815"
       style="opacity:1;fill:none;fill-opacity:1;stroke:#ffffff;stroke-width:0.39164442;stroke-linecap:round;stroke-linejoin:round;stroke-miterlimit:4;stroke-dasharray:none;stroke-dashoffset:0;stroke-opacity:1;paint-order:stroke fill markers"
       d="m 12.197751,257.46553 a 7.3041719,7.3041724 0 0 0 -7.3041774,7.30417 7.3041719,7.3041724 0 0 0 7.3041774,7.30418 7.3041719,7.3041724 0 0 0 7.304178,-7.30418 7.3041719,7.3041724 0 0 0 -7.304178,-7.30417 z"
       inkscape:connector-curvature="0" />
    <path
       style="fill:none;stroke:#fff9f9;stroke-width:0.40000001;stroke-linecap:butt;stroke-linejoin:miter;stroke-miterlimit:4;stroke-dasharray:none;stroke-dashoffset:0;stroke-opacity:1"
       d="m 17.197751,257.2697 v 2.25"
       id="path840"
       inkscape:connector-curvature="0" />
    <path
       inkscape:connector-curvature="0"
       id="path846"
       d="m 4.6977514,269.7697 h 2.25"
       style="fill:none;stroke:#ffffff;stroke-width:0.40000001;stroke-linecap:butt;stroke-linejoin:miter;stroke-miterlimit:4;stroke-dasharray:none;stroke-dashoffset:0;stroke-opacity:1" />
    <path
       inkscape:connector-curvature="0"
       d="m 16.676275,260.29118 c -1.19624,-1.19628 -2.786754,-1.85507 -4.478524,-1.85507 -1.69177,0 -3.2822839,0.65879 -4.4785239,1.85507 -1.1962683,1.19626 -1.8550694,2.78675 -1.8550694,4.47852 0,1.69177 0.6588011,3.28226 1.8550694,4.47852 1.19624,1.19628 2.7867539,1.85507 4.4785239,1.85507 1.69177,0 3.282284,-0.65879 4.478524,-1.85507 1.196267,-1.19626 1.85507,-2.78675 1.85507,-4.47852 0,-1.69177 -0.658803,-3.28226 -1.85507,-4.47852 z m -4.478524,10.40784 c -3.2694548,0 -5.9293207,-2.65986 -5.9293207,-5.92932 0,-3.26946 2.6598659,-5.92932 5.9293207,-5.92932 3.269455,0 5.929321,2.65986 5.929321,5.92932 0,3.26946 -2.659866,5.92932 -5.929321,5.92932 z"
       id="path2"
       style="fill:#ffffff;fill-opacity:1;stroke-width:0.02695147" />
    <path
       inkscape:connector-curvature="0"
       d="m 12.197751,259.24465 c -3.0465392,0 -5.5250497,2.47853 -5.5250497,5.52505 0,3.04652 2.4785105,5.52505 5.5250497,5.52505 3.046539,0 5.52505,-2.47853 5.52505,-5.52505 0,-3.04652 -2.478511,-5.52505 -5.52505,-5.52505 z m 0,10.64583 c -2.8235967,0 -5.1207771,-2.29716 -5.1207771,-5.12078 0,-2.82362 2.2971804,-5.12078 5.1207771,-5.12078 2.823596,0 5.120778,2.29716 5.120778,5.12078 0,2.82362 -2.297182,5.12078 -5.120778,5.12078 z"
       id="path4"
       style="fill:#ffffff;fill-opacity:1;stroke-width:0.02695147" />
    <path
       inkscape:connector-curvature="0"
       d="m 15.835336,262.69008 c -0.0025,-0.006 -0.0051,-0.0104 -0.008,-0.0158 -0.0037,-0.006 -0.0076,-0.0119 -0.01177,-0.0182 -0.364088,-0.62077 -0.883255,-1.13994 -1.504027,-1.50403 -0.0058,-0.004 -0.01177,-0.007 -0.01814,-0.0119 -0.0052,-0.003 -0.01043,-0.006 -0.01583,-0.007 -0.613226,-0.35193 -1.323344,-0.55337 -2.079656,-0.55337 -0.756338,0 -1.466483,0.20144 -2.079709,0.55343 -0.0054,0.003 -0.01058,0.004 -0.01577,0.007 -0.0064,0.003 -0.01237,0.007 -0.01814,0.0119 -0.6207737,0.36408 -1.1399391,0.88325 -1.5040262,1.50403 -0.00417,0.006 -0.0082,0.0119 -0.011773,0.0182 -0.00298,0.004 -0.00566,0.0104 -0.00805,0.0158 -0.3519317,0.61319 -0.5533668,1.32331 -0.5533668,2.07962 0,0.7361 0.1944547,1.46065 0.5625573,2.09581 0.010432,0.0177 0.106911,0.17065 0.3007518,0.0589 l 0.5578146,-0.32204 c 0.096673,-0.0559 0.1298014,-0.17944 0.073976,-0.27612 -0.05581,-0.0967 -0.1794434,-0.1298 -0.2761179,-0.0741 0,0 -0.2321329,0.13397 -0.4033554,0.2329 -0.2391669,-0.46932 -0.3774285,-0.98566 -0.4056734,-1.51323 h 0.4659647 c 0.1116352,0 0.202135,-0.0905 0.202135,-0.20214 0,-0.11162 -0.090503,-0.20213 -0.202135,-0.20213 H 8.4167272 c 0.028643,-0.54223 0.1719235,-1.05455 0.4059431,-1.51321 l 0.4033554,0.23288 c 0.031832,0.0183 0.0666,0.0271 0.1008756,0.0271 0.069863,0 0.1378041,-0.0362 0.1752393,-0.10104 0.05581,-0.0967 0.022697,-0.2203 -0.073976,-0.27613 l -0.4026541,-0.23245 c 0.2882724,-0.44138 0.6660512,-0.81916 1.1074355,-1.10744 l 0.232456,0.40264 c 0.03744,0.0648 0.105376,0.10104 0.175238,0.10104 0.03428,0 0.06904,-0.009 0.100875,-0.0271 0.09667,-0.0559 0.129802,-0.17944 0.07398,-0.27612 l -0.232887,-0.40335 c 0.458632,-0.23403 0.97098,-0.3773 1.513189,-0.40595 v 0.4662 c 0,0.11162 0.0905,0.20214 0.202137,0.20214 0.111635,0 0.202136,-0.0905 0.202136,-0.20214 v -0.46622 c 0.542236,0.0286 1.054557,0.17191 1.513189,0.40594 l -0.232887,0.40335 c -0.05583,0.0967 -0.0227,0.22031 0.07398,0.27612 0.03183,0.0183 0.0666,0.0271 0.100875,0.0271 0.06986,0 0.137804,-0.0362 0.175238,-0.10104 l 0.232456,-0.40264 c 0.441385,0.28831 0.819163,0.66606 1.107436,1.10744 l -0.402654,0.23247 c -0.09667,0.0557 -0.129802,0.17944 -0.07398,0.27611 0.03744,0.0648 0.105376,0.10104 0.17524,0.10104 0.03428,0 0.06904,-0.009 0.100875,-0.0271 l 0.403356,-0.23288 c 0.23402,0.45863 0.377266,0.97098 0.405942,1.51321 h -0.466124 c -0.111635,0 -0.202137,0.0905 -0.202137,0.20213 0,0.11163 0.0905,0.20214 0.202137,0.20214 h 0.46599 c -0.02824,0.5272 -0.166344,1.04365 -0.405189,1.51349 l -0.403841,-0.23316 c -0.0967,-0.0557 -0.2203,-0.0226 -0.276116,0.0741 -0.05583,0.0967 -0.0227,0.22029 0.07398,0.27612 l 0.583527,0.33689 c 0.03183,0.0183 0.06657,0.0271 0.100876,0.0271 0.0698,0 0.137714,-0.0362 0.175184,-0.10104 0.367348,-0.63551 0.561535,-1.36016 0.561535,-2.09556 -2.9e-5,-0.7563 -0.201462,-1.46642 -0.553395,-2.07962 z"
       id="path6"
       style="fill:#ffffff;fill-opacity:1;stroke-width:0.02695147" />
    <path
       inkscape:connector-curvature="0"
       d="m 12.886469,263.53398 c -0.09751,-0.0542 -0.220436,-0.0191 -0.27469,0.0782 l -0.312151,0.55975 c -0.03316,-0.006 -0.06714,-0.009 -0.101874,-0.009 -0.334387,0 -0.606408,0.27205 -0.606408,0.6064 0,0.0378 0.0037,0.0748 0.01028,0.11073 l -1.6756547,0.96746 c -0.096673,0.0557 -0.1298014,0.17944 -0.073976,0.27611 0.037435,0.0648 0.1053761,0.10104 0.1752377,0.10104 0.03428,0 0.06904,-0.009 0.100875,-0.0271 l 1.67595,-0.96761 c 0.106031,0.0908 0.243506,0.14575 0.393679,0.14575 0.260351,0 0.482836,-0.16494 0.568623,-0.39578 l 0.64077,0.009 c 10e-4,3e-5 0.0021,3e-5 0.0031,3e-5 0.1101,0 0.200224,-0.0884 0.202057,-0.1988 0.0042,-0.25523 -0.06118,-0.50726 -0.189147,-0.7289 -0.127968,-0.22158 -0.313553,-0.40422 -0.536685,-0.5282 z m -0.688718,1.43786 c -0.111471,0 -0.202136,-0.0906 -0.202136,-0.20214 0,-0.11147 0.09067,-0.20214 0.202136,-0.20214 0.0351,0 0.06813,0.009 0.09691,0.0249 5.07e-4,3.6e-4 9.42e-4,5.9e-4 0.0015,9.7e-4 0.0619,0.0347 0.103766,0.10074 0.103766,0.17638 0,8.5e-4 -1.11e-4,10e-4 -1.32e-4,0.003 -0.0016,0.11058 -0.09158,0.19955 -0.202002,0.19955 z m 0.574524,-0.39574 c -0.02604,-0.077 -0.06708,-0.14724 -0.119742,-0.20691 l 0.204049,-0.36588 c 0.08593,0.0738 0.159229,0.16194 0.216448,0.26104 0.05721,0.0991 0.09691,0.2067 0.117864,0.31801 z"
       id="path8"
       style="fill:#ffffff;fill-opacity:1;stroke-width:0.02695147" />
    <path
       inkscape:connector-curvature="0"
       d="m 12.90245,268.55638 h -1.409399 c -0.111635,0 -0.202137,0.0905 -0.202137,0.20214 0,0.11162 0.0905,0.20213 0.202137,0.20213 h 1.409399 c 0.111636,0 0.202136,-0.0905 0.202136,-0.20213 0,-0.11162 -0.0905,-0.20214 -0.202136,-0.20214 z"
       id="path10"
       style="fill:#ffffff;fill-opacity:1;stroke-width:0.02695147" />
    <path
       inkscape:connector-curvature="0"
       d="m 12.632936,268.15211 c 0.111635,0 0.202135,-0.0905 0.202135,-0.20214 0,-0.11162 -0.0905,-0.20214 -0.202135,-0.20214 h -0.87037 c -0.111635,0 -0.202137,0.0905 -0.202137,0.20214 0,0.11162 0.0905,0.20214 0.202137,0.20214 z"
       id="path12"
       style="fill:#ffffff;fill-opacity:1;stroke-width:0.02695147" />
  </g>
</svg>
