<svg
    xmlns="http://www.w3.org/2000/svg"
    viewBox="0 0 14 14"
    id="vector">
    <path
        id="path"
        d="M 3.409 14.317 C 2.893 14.13 2.474 13.711 2.267 13.172 C 2.155 12.881 2.098 7.853 2.2 7.192 C 2.283 6.651 2.525 6.246 2.964 5.913 L 3.298 5.66 L 3.298 2.834 L 3.298 0.008 L 7.088 0.008 L 10.878 0.008 L 10.878 2.874 L 10.878 5.74 L 11.059 5.835 C 11.363 5.994 11.708 6.407 11.842 6.771 C 11.962 7.096 11.969 7.284 11.969 10.002 C 11.969 13.339 11.974 13.306 11.427 13.86 C 10.871 14.424 10.983 14.41 7.06 14.407 C 4.367 14.405 3.6 14.386 3.408 14.316 Z M 6.843 12.407 C 7.006 12.228 9.566 8.45 9.714 8.169 C 9.814 7.979 9.801 7.962 9.336 7.671 C 9.064 7.5 8.9 7.437 8.803 7.465 C 8.708 7.491 8.282 8.075 7.511 9.234 L 6.36 10.965 L 5.807 10.407 C 5.479 10.075 5.202 9.849 5.125 9.849 C 4.958 9.849 4.455 10.367 4.455 10.539 C 4.455 10.621 4.811 11.028 5.407 11.628 C 6.448 12.676 6.548 12.73 6.843 12.407 Z M 9.85 3.365 L 9.85 1.116 L 7.088 1.116 L 4.326 1.116 L 4.326 3.365 L 4.326 5.613 L 7.088 5.613 L 9.85 5.613 Z M 4.904 3.039 L 4.904 2.224 L 5.707 2.224 L 6.51 2.224 L 6.51 3.039 L 6.51 3.853 L 5.707 3.853 L 4.904 3.853 Z M 7.666 3.039 L 7.666 2.224 L 8.433 2.224 L 9.2 2.224 L 9.22 3.039 L 9.24 3.854 L 8.453 3.854 L 7.666 3.853 Z"
        fill="#ffffff"
        stroke-width="0.06469849"/>
</svg>
