<svg
    xmlns="http://www.w3.org/2000/svg"
    viewBox="0 0 14 14"
    id="vector">
    <path
        id="path_1"
        d="M 3.409 14.305 C 2.893 14.118 2.473 13.697 2.268 13.16 C 2.148 12.847 2.098 7.816 2.208 7.155 C 2.301 6.599 2.568 6.167 2.99 5.894 L 3.292 5.698 L 3.296 2.847 L 3.3 -0.004 L 7.09 -0.004 L 10.88 -0.004 L 10.88 2.861 L 10.88 5.726 L 11.025 5.801 C 11.327 5.958 11.718 6.414 11.845 6.757 C 11.965 7.084 11.973 7.268 11.973 9.957 C 11.973 13.296 11.973 13.299 11.437 13.842 C 10.874 14.413 10.992 14.398 7.064 14.395 C 4.371 14.393 3.604 14.374 3.412 14.304 Z M 6.396 11.613 L 7.088 10.914 L 7.78 11.613 C 8.16 11.998 8.514 12.312 8.565 12.312 C 8.707 12.312 9.337 11.65 9.337 11.501 C 9.337 11.421 9.073 11.101 8.664 10.684 L 7.989 9.999 L 8.696 9.232 C 9.271 8.608 9.392 8.444 9.343 8.351 C 9.26 8.194 8.658 7.686 8.555 7.686 C 8.509 7.686 8.16 8.001 7.78 8.385 L 7.088 9.085 L 6.396 8.385 C 6.016 8.001 5.662 7.687 5.61 7.687 C 5.496 7.689 4.776 8.381 4.776 8.488 C 4.776 8.529 5.095 8.887 5.484 9.283 L 6.192 10.003 L 5.484 10.711 C 5.095 11.1 4.776 11.45 4.776 11.489 C 4.776 11.597 5.498 12.312 5.608 12.312 C 5.662 12.312 6.017 11.997 6.397 11.613 Z M 9.85 3.352 L 9.85 1.104 L 7.088 1.104 L 4.326 1.104 L 4.326 3.352 L 4.326 5.6 L 7.088 5.6 L 9.85 5.6 Z M 4.904 3.026 L 4.904 2.212 L 5.707 2.212 L 6.51 2.212 L 6.51 3.027 L 6.51 3.842 L 5.707 3.842 L 4.904 3.842 Z M 7.666 3.026 L 7.666 2.212 L 8.433 2.212 L 9.2 2.212 L 9.22 3.027 L 9.24 3.842 L 8.453 3.842 L 7.666 3.842 Z"
        fill="#ffffff"
        stroke-width="0.06469911"/>
</svg>
