<?xml version="1.0" encoding="UTF-8" standalone="no"?>
<!-- Created with Inkscape (http://www.inkscape.org/) -->

<svg
   xmlns:dc="http://purl.org/dc/elements/1.1/"
   xmlns:cc="http://creativecommons.org/ns#"
   xmlns:rdf="http://www.w3.org/1999/02/22-rdf-syntax-ns#"
   xmlns:svg="http://www.w3.org/2000/svg"
   xmlns="http://www.w3.org/2000/svg"
   xmlns:sodipodi="http://sodipodi.sourceforge.net/DTD/sodipodi-0.dtd"
   xmlns:inkscape="http://www.inkscape.org/namespaces/inkscape"
   width="15mm"
   height="14.999994mm"
   viewBox="0 0 15 14.999994"
   version="1.1"
   id="svg8"
   inkscape:version="0.92.3 (3ce5693, 2018-03-11)"
   sodipodi:docname="tile_icon_logic_analyzer_ex.svg">
  <sodipodi:namedview
     id="base"
     pagecolor="#ffffff"
     bordercolor="#666666"
     borderopacity="1.0"
     inkscape:pageopacity="0.0"
     inkscape:pageshadow="2"
     inkscape:zoom="4"
     inkscape:cx="32.736725"
     inkscape:cy="18.09189"
     inkscape:document-units="mm"
     inkscape:current-layer="layer1"
     showgrid="false"
     inkscape:window-width="1315"
     inkscape:window-height="744"
     inkscape:window-x="51"
     inkscape:window-y="24"
     inkscape:window-maximized="1"
     inkscape:measure-start="4.15425,57.8502"
     inkscape:measure-end="0,56.6929" />
  <defs
     id="defs2" />
  <metadata
     id="metadata5">
    <rdf:RDF>
      <cc:Work
         rdf:about="">
        <dc:format>image/svg+xml</dc:format>
        <dc:type
           rdf:resource="http://purl.org/dc/dcmitype/StillImage" />
        <dc:title />
      </cc:Work>
    </rdf:RDF>
  </metadata>
  <g
     transform="translate(-4.6977514,-257.26971)"
     id="layer1"
     inkscape:groupmode="layer"
     inkscape:label="Border">
    <path
       id="path815"
       style="opacity:1;fill:none;fill-opacity:1;stroke:#ffffff;stroke-width:0.39164442;stroke-linecap:round;stroke-linejoin:round;stroke-miterlimit:4;stroke-dasharray:none;stroke-dashoffset:0;stroke-opacity:1;paint-order:stroke fill markers"
       d="m 12.197751,257.46553 a 7.3041719,7.3041724 0 0 0 -7.3041774,7.30417 7.3041719,7.3041724 0 0 0 7.3041774,7.30418 7.3041719,7.3041724 0 0 0 7.304178,-7.30418 7.3041719,7.3041724 0 0 0 -7.304178,-7.30417 z"
       inkscape:connector-curvature="0" />
    <g
       id="g3012"
       transform="matrix(0.11486446,0,0,0.12878801,21.044541,268.06168)"
       style="fill:#ffffff;fill-opacity:1">
      <g
         id="g4936"
         transform="translate(-117.01939,-65.561146)"
         style="fill:#ffffff;fill-opacity:1;stroke:none;stroke-opacity:1">
        <path
           sodipodi:nodetypes="ssssssssscssccssssccscc"
           inkscape:connector-curvature="0"
           d="m 19.646184,24.999936 c -4.768332,0 -8.646059,2.691176 -8.646057,6.000177 v 21.999793 c 0,3.309001 3.877725,6.000176 8.646057,6.000177 h 40.348585 c 4.768338,0 8.646068,-2.691176 8.646068,-6.000177 V 31.000113 c 0,-3.309001 -3.87773,-6.000177 -8.646068,-6.000177 z m -1.97536,2.83595 h 43.970078 c 1.589457,0 3.869714,2.061226 3.869714,3.164227 v 8.999838 4.000117 8.999838 c 0,1.102999 -2.93871,3.164225 -4.528167,3.164225 H 18.98773 c -1.589443,0 -4.528152,-2.061226 -4.528152,-3.164225 v -8.999838 l 7e-6,-4.000117 v -8.999838 c 0,-1.518775 1.86601,-3.164227 3.869699,-3.164227 z"
           style="fill:#ffffff;fill-opacity:1;stroke:none;stroke-width:1.20042455;stroke-opacity:1"
           id="path2989" />
        <path
           style="fill:#ffffff;fill-opacity:1;stroke:none;stroke-opacity:1"
           inkscape:connector-curvature="0"
           d="m 21,13 c 0,-1.103 0.897,-2 2,-2 h 34 c 1.103,0 2,0.897 2,2 0,1.104 0.896,2 2,2 1.104,0 2,-0.896 2,-2 C 63,9.691 60.309,7 57,7 H 23 c -3.309,0 -6,2.691 -6,6 0,1.104 0.896,2 2,2 1.104,0 2,-0.896 2,-2 z"
           id="path2995" />
        <path
           d="m 905.16406,670.42773 c -20.28074,0 -36.77539,18.49146 -36.77539,41.23047 v 261.13086 c 0,22.73901 16.49465,41.23244 36.77539,41.23244 h 12.25782 c 0,22.739 16.49269,41.2305 36.77343,41.2305 h 24.51563 c 20.28074,0 36.77346,-18.4915 36.77346,-41.2305 h 159.3535 c 0,22.739 16.4927,41.2305 36.7734,41.2305 h 24.5157 c 20.2807,0 36.7734,-18.4915 36.7734,-41.2305 h 12.2578 c 20.2807,0 36.7754,-18.49343 36.7754,-41.23244 v -41.23047 c 0,-7.58654 -5.4934,-13.74414 -12.2598,-13.74414 -6.7663,0 -12.2578,6.1576 -12.2578,13.74414 v 41.23047 c 0,7.57967 -5.4976,13.74414 -12.2578,13.74414 h -12.2578 -98.0625 -159.3535 -98.06252 -12.25782 c -6.76024,0 -12.25976,-6.16447 -12.25976,-13.74414 V 711.6582 c 0,-7.57967 5.49952,-13.74218 12.25976,-13.74218 h 379.99414 c 6.7602,0 12.2578,6.16251 12.2578,13.74218 v 178.66992 c 0,7.58655 5.4915,13.74415 12.2578,13.74415 6.7664,0 12.2598,-6.1576 12.2598,-13.74415 V 711.6582 c 0,-22.73901 -16.4947,-41.23047 -36.7754,-41.23047 z m 36.77344,343.59377 h 49.03125 c 0,7.5797 -5.49757,13.7441 -12.25781,13.7441 h -24.51563 c -6.76024,0 -12.25781,-6.1644 -12.25781,-13.7441 z m 257.416,0 h 49.0313 c 0,7.5797 -5.4976,13.7441 -12.2578,13.7441 h -24.5157 c -6.7602,0 -12.2578,-6.1644 -12.2578,-13.7441 z"
           style="fill:#ffffff;fill-opacity:1;stroke:none;stroke-width:6.48979425;stroke-opacity:1"
           transform="matrix(0.16315972,0,0,0.14552083,-138.68617,-80.561215)"
           id="path2997"
           inkscape:connector-curvature="0" />
        <path
           sodipodi:nodetypes="cccccccccccccccccccccsccccccsccccccccsccscccscccccscccscccccccccccccccscccccsccccccccccccccc"
           inkscape:connector-curvature="0"
           d="m 42.033971,30.620839 c -0.577746,0.0019 -1.235477,0.0059 -1.986171,0.01053 -5.160605,0.03216 -5.388075,0.04304 -5.779644,0.275331 -0.224175,0.132993 -0.544386,0.387452 -0.711853,0.565553 -0.300333,0.3194 -0.305296,0.44367 -0.344386,9.111136 l -0.03952,8.787474 h -1.174796 -1.174796 l -0.04066,-5.961087 -0.04096,-5.961318 -0.425447,-0.443003 c -0.728895,-0.758733 -0.922827,-0.784279 -5.629366,-0.745594 -3.962802,0.03258 -4.209705,0.04742 -4.595337,0.276246 -0.978163,0.580398 -1.012069,0.679938 -1.062295,3.108819 l -0.04587,2.220061 h -2.299102 -2.224406 c -0.06181,0.03629 -0.127417,0.06841 -0.194403,0.09827 -0.01271,0.0054 -0.02541,0.01086 -0.03806,0.01626 -0.02463,0.01049 -0.04806,0.01757 -0.07182,0.02589 0,0.01787 0.0015,0.03573 0.0015,0.0536 0.0018,0.291686 0.0025,0.583326 0.0025,0.875014 v 0.784077 c 4.6e-5,0.247864 0,0.495668 0,0.743532 1.5e-5,0.257767 0,0.515544 0,0.773311 0.0082,0.102786 0.005,0.204707 -0.005,0.306024 0.07821,0.01174 0.153557,0.03362 0.226421,0.06139 0.013,0.0049 0.02544,0.01077 0.03837,0.0158 h 3.691381 c 4.167219,0 4.413782,-0.03831 5.144805,-0.798736 0.394877,-0.410718 0.398096,-0.430104 0.443612,-2.622292 l 0.04585,-2.208379 h 1.168461 1.168726 l 0.04067,5.972769 c 0.03982,5.823502 0.04867,5.980762 0.345552,6.296442 0.167467,0.178078 0.487826,0.43255 0.712137,0.565545 0.390519,0.231568 0.594167,0.241889 4.801848,0.241889 h 4.39432 l 0.521497,-0.315869 c 1.056446,-0.639899 1.00606,-0.152322 1.00606,-9.758701 v -8.631716 h 2.362898 2.362854 v 7.68546 c 0,8.515454 -0.03496,8.197475 0.969716,8.806037 l 0.557825,0.338093 h 4.379313 4.37958 l 0.521496,-0.31588 c 1.013354,-0.613828 1.006057,-0.570728 1.006057,-6.005758 v -4.878546 h 1.181428 1.181427 v 2.056054 c 0,2.336813 0.09456,2.646368 0.969435,3.17662 l 0.557531,0.338094 3.907997,0.03482 3.469008,0.03115 c 0.07839,-0.06387 0.159523,-0.12557 0.24141,-0.186455 1.5e-5,-0.0349 0,-0.06978 0,-0.104681 5.8e-5,-0.213347 0,-0.426651 0,-0.639997 0.0015,-0.446364 0,-0.888527 0.01742,-1.30313 0.01,-0.198915 0.02522,-0.397591 0.04875,-0.595788 0,-0.04953 0,-0.0989 -0.0021,-0.148431 -0.0015,-0.04329 -0.0018,-0.08671 -0.0062,-0.129877 -0.0045,-0.03889 -0.01225,-0.07738 -0.02481,-0.115218 -0.01794,-0.06171 -0.02983,-0.123749 -0.03807,-0.186685 -0.0041,-0.02099 -0.0096,-0.04504 -0.01417,-0.06826 -0.151785,-0.07077 -0.295062,-0.167376 -0.42112,-0.294115 -0.351875,0.02558 -0.885273,0.01237 -1.68157,0.01237 h -2.280079 l -0.04585,-2.208378 -0.04586,-2.208607 -0.425431,-0.442777 c -0.729087,-0.758441 -0.923153,-0.784049 -5.629381,-0.745364 -3.962801,0.03258 -4.20969,0.04742 -4.595323,0.276247 -0.224117,0.132986 -0.544401,0.387499 -0.71187,0.565553 -0.294824,0.313497 -0.30643,0.48297 -0.346111,5.358198 l -0.04126,5.034535 H 48.534735 47.36081 L 47.32099,39.656835 47.2809,31.819277 46.855468,31.376273 c -0.652392,-0.679106 -0.776885,-0.768714 -4.821248,-0.75544 z m -27.402709,9.695014 c -0.04118,0.03409 -0.08448,0.0665 -0.126914,0.09964 0.03589,1.18e-4 0.0723,2e-6 0.107578,4.69e-4 0.0068,-0.03342 0.01242,-0.06663 0.01933,-0.1001 z"
           style="fill:#ffffff;fill-opacity:1;stroke:none;stroke-width:0.13160402;stroke-opacity:1"
           id="path4657" />
      </g>
    </g>
    <path
       style="fill:none;stroke:#fff9f9;stroke-width:0.40000001;stroke-linecap:butt;stroke-linejoin:miter;stroke-miterlimit:4;stroke-dasharray:none;stroke-dashoffset:0;stroke-opacity:1"
       d="m 17.197751,257.2697 v 2.25"
       id="path840"
       inkscape:connector-curvature="0" />
    <path
       inkscape:connector-curvature="0"
       id="path846"
       d="m 4.6977514,269.7697 h 2.25"
       style="fill:none;stroke:#ffffff;stroke-width:0.40000001;stroke-linecap:butt;stroke-linejoin:miter;stroke-miterlimit:4;stroke-dasharray:none;stroke-dashoffset:0;stroke-opacity:1" />
  </g>
</svg>
