<?xml version="1.0" encoding="UTF-8" standalone="no"?>
<!-- Created with Inkscape (http://www.inkscape.org/) -->

<svg
   xmlns:dc="http://purl.org/dc/elements/1.1/"
   xmlns:cc="http://creativecommons.org/ns#"
   xmlns:rdf="http://www.w3.org/1999/02/22-rdf-syntax-ns#"
   xmlns:svg="http://www.w3.org/2000/svg"
   xmlns="http://www.w3.org/2000/svg"
   xmlns:sodipodi="http://sodipodi.sourceforge.net/DTD/sodipodi-0.dtd"
   xmlns:inkscape="http://www.inkscape.org/namespaces/inkscape"
   width="15mm"
   height="14.999994mm"
   viewBox="0 0 15 14.999994"
   version="1.1"
   id="svg8"
   inkscape:version="0.92.3 (3ce5693, 2018-03-11)"
   sodipodi:docname="tile_icon_oscilloscope.svg">
  <sodipodi:namedview
     id="base"
     pagecolor="#ffffff"
     bordercolor="#666666"
     borderopacity="1.0"
     inkscape:pageopacity="0.0"
     inkscape:pageshadow="2"
     inkscape:zoom="5.6"
     inkscape:cx="13.650307"
     inkscape:cy="30.668704"
     inkscape:document-units="mm"
     inkscape:current-layer="layer1"
     showgrid="false"
     inkscape:window-width="1315"
     inkscape:window-height="744"
     inkscape:window-x="51"
     inkscape:window-y="24"
     inkscape:window-maximized="1" />
  <defs
     id="defs2" />
  <metadata
     id="metadata5">
    <rdf:RDF>
      <cc:Work
         rdf:about="">
        <dc:format>image/svg+xml</dc:format>
        <dc:type
           rdf:resource="http://purl.org/dc/dcmitype/StillImage" />
        <dc:title />
      </cc:Work>
    </rdf:RDF>
  </metadata>
  <g
     transform="translate(-4.6977514,-257.26971)"
     id="layer1"
     inkscape:groupmode="layer"
     inkscape:label="Border">
    <path
       id="path815"
       style="opacity:1;fill:none;fill-opacity:1;stroke:#ffffff;stroke-width:0.392;stroke-linecap:round;stroke-linejoin:round;stroke-miterlimit:4;stroke-dasharray:none;stroke-dashoffset:0;stroke-opacity:1;paint-order:stroke fill markers"
       d="m 12.197751,257.46553 a 7.3041719,7.3041724 0 0 0 -7.3041774,7.30417 7.3041719,7.3041724 0 0 0 7.3041774,7.30418 7.3041719,7.3041724 0 0 0 7.304178,-7.30418 7.3041719,7.3041724 0 0 0 -7.304178,-7.30417 z"
       inkscape:connector-curvature="0" />
    <g
       id="g3012"
       transform="matrix(0.11486486,0,0,0.12878788,7.6031568,259.61819)"
       style="fill:#ffffff;fill-opacity:1">
      <path
         id="path2989"
         d="m 17,25 c -3.309,0 -6,2.691 -6,6 v 22 c 0,3.309 2.691,6 6,6 h 28 c 3.309,0 6,-2.691 6,-6 V 31 c 0,-3.309 -2.691,-6 -6,-6 z m 30,28 c 0,1.103 -0.897,2 -2,2 H 17 c -1.103,0 -2,-0.897 -2,-2 v -9 h 9 L 26.051416,39.406989 28,44 h 4.172 L 36.102832,51.313163 39.828,44 H 47 Z m 0,-22 v 9 H 38.172 L 36.154248,45.106874 33.828,40 H 30 L 26.102832,31.961413 22,40 h -7 v -9 c 0,-1.103 0.897,-2 2,-2 h 28 c 1.103,0 2,0.897 2,2 z"
         inkscape:connector-curvature="0"
         style="fill:#ffffff;fill-opacity:1"
         sodipodi:nodetypes="sssssssssssssccccccccssccccccccssss" />
      <path
         id="path2991"
         d="m 62,25 c -3.859,0 -7,3.14 -7,7 0,3.86 3.141,7 7,7 3.859,0 7,-3.14 7,-7 0,-3.86 -3.141,-7 -7,-7 z m 0,10 c -1.654,0 -3,-1.346 -3,-3 0,-1.654 1.346,-3 3,-3 1.654,0 3,1.346 3,3 0,1.654 -1.346,3 -3,3 z"
         inkscape:connector-curvature="0"
         style="fill:#ffffff;fill-opacity:1" />
      <path
         id="path2993"
         d="m 62,45 c -3.859,0 -7,3.141 -7,7 0,3.859 3.141,7 7,7 3.859,0 7,-3.141 7,-7 0,-3.859 -3.141,-7 -7,-7 z m 0,10 c -1.654,0 -3,-1.346 -3,-3 0,-1.654 1.346,-3 3,-3 1.654,0 3,1.346 3,3 0,1.654 -1.346,3 -3,3 z"
         inkscape:connector-curvature="0"
         style="fill:#ffffff;fill-opacity:1" />
      <path
         id="path2995"
         d="m 21,13 c 0,-1.103 0.897,-2 2,-2 h 34 c 1.103,0 2,0.897 2,2 0,1.104 0.896,2 2,2 1.104,0 2,-0.896 2,-2 C 63,9.691 60.309,7 57,7 H 23 c -3.309,0 -6,2.691 -6,6 0,1.104 0.896,2 2,2 1.104,0 2,-0.896 2,-2 z"
         inkscape:connector-curvature="0"
         style="fill:#ffffff;fill-opacity:1" />
      <path
         id="path2997"
         d="M 71,17 H 9 c -3.309,0 -6,2.691 -6,6 v 38 c 0,3.309 2.691,6 6,6 h 2 c 0,3.309 2.691,6 6,6 h 4 c 3.309,0 6,-2.691 6,-6 h 26 c 0,3.309 2.691,6 6,6 h 4 c 3.309,0 6,-2.691 6,-6 h 2 c 3.309,0 6,-2.691 6,-6 v -6 c 0,-1.104 -0.896,-2 -2,-2 -1.104,0 -2,0.896 -2,2 v 6 c 0,1.103 -0.897,2 -2,2 H 69 53 27 11 9 C 7.897,63 7,62.103 7,61 V 23 c 0,-1.103 0.897,-2 2,-2 h 62 c 1.103,0 2,0.897 2,2 v 26 c 0,1.104 0.896,2 2,2 1.104,0 2,-0.896 2,-2 V 23 c 0,-3.309 -2.691,-6 -6,-6 z m -6,50 c 0,1.103 -0.897,2 -2,2 h -4 c -1.103,0 -2,-0.897 -2,-2 z m -42,0 c 0,1.103 -0.897,2 -2,2 h -4 c -1.103,0 -2,-0.897 -2,-2 z"
         inkscape:connector-curvature="0"
         style="fill:#ffffff;fill-opacity:1" />
    </g>
    <path
       style="fill:none;stroke:#ffffff;stroke-width:0.40000001;stroke-linecap:butt;stroke-linejoin:miter;stroke-miterlimit:4;stroke-dasharray:none;stroke-opacity:1"
       d="m 17.197751,257.2697 v 2.25"
       id="path822"
       inkscape:connector-curvature="0" />
    <path
       inkscape:connector-curvature="0"
       id="path824"
       d="m 4.6977514,269.7697 h 2.25"
       style="fill:none;stroke:#ffffff;stroke-width:0.40000001;stroke-linecap:butt;stroke-linejoin:miter;stroke-miterlimit:4;stroke-dasharray:none;stroke-opacity:1" />
  </g>
</svg>
