<?xml version="1.0" encoding="UTF-8" standalone="no"?>
<svg
   xmlns:dc="http://purl.org/dc/elements/1.1/"
   xmlns:cc="http://creativecommons.org/ns#"
   xmlns:rdf="http://www.w3.org/1999/02/22-rdf-syntax-ns#"
   xmlns:svg="http://www.w3.org/2000/svg"
   xmlns="http://www.w3.org/2000/svg"
   xmlns:sodipodi="http://sodipodi.sourceforge.net/DTD/sodipodi-0.dtd"
   xmlns:inkscape="http://www.inkscape.org/namespaces/inkscape"
   id="svg8"
   version="1.1"
   viewBox="0 0 15.000356 15.000356"
   height="15.000356mm"
   width="15.000356mm"
   sodipodi:docname="tile_icon_power_source.svg"
   inkscape:version="0.92.3 (3ce5693, 2018-03-11)">
  <sodipodi:namedview
     pagecolor="#ffffff"
     bordercolor="#666666"
     borderopacity="1"
     objecttolerance="10"
     gridtolerance="10"
     guidetolerance="10"
     inkscape:pageopacity="0"
     inkscape:pageshadow="2"
     inkscape:window-width="1315"
     inkscape:window-height="744"
     id="namedview905"
     showgrid="false"
     inkscape:zoom="3.5322341"
     inkscape:cx="21.425313"
     inkscape:cy="18.041072"
     inkscape:window-x="51"
     inkscape:window-y="24"
     inkscape:window-maximized="1"
     inkscape:current-layer="layer1" />
  <defs
     id="defs2" />
  <metadata
     id="metadata5">
    <rdf:RDF>
      <cc:Work
         rdf:about="">
        <dc:format>image/svg+xml</dc:format>
        <dc:type
           rdf:resource="http://purl.org/dc/dcmitype/StillImage" />
        <dc:title />
      </cc:Work>
    </rdf:RDF>
  </metadata>
  <g
     transform="matrix(0.97429971,0,0,0.97429672,-4.6812948,-250.16664)"
     id="layer1"
     style="stroke:#fffefe;stroke-opacity:1">
    <ellipse
       ry="7.4968724"
       rx="7.4968486"
       cy="264.46442"
       cx="12.502798"
       id="path815"
       style="opacity:1;fill:none;fill-opacity:1;stroke:#ffffff;stroke-width:0.40234087;stroke-linecap:round;stroke-linejoin:round;stroke-miterlimit:4;stroke-dasharray:none;stroke-dashoffset:0;stroke-opacity:1;paint-order:stroke fill markers" />
    <g
       id="g816"
       transform="matrix(0.27263172,0,0,0.27263863,8.1405082,260.10229)"
       style="fill:#ffffff;fill-opacity:1;stroke:none;stroke-width:0;stroke-miterlimit:4;stroke-dasharray:none;stroke-opacity:1">
      <path
         id="path814"
         d="m 31,17 h -4 c -0.553,0 -1,-0.448 -1,-1 0,-0.552 0.447,-1 1,-1 h 4 c 0.553,0 1,0.448 1,1 0,0.552 -0.447,1 -1,1 z M 5,17 H 1 C 0.448,17 0,16.552 0,16 0,15.448 0.448,15 1,15 h 4 c 0.552,0 1,0.448 1,1 0,0.552 -0.448,1 -1,1 z M 25.527,11.5 C 25.181,11.5 24.845,11.321 24.66,11 24.384,10.522 24.548,9.91 25.026,9.634 l 3.464,-2 C 28.967,7.358 29.58,7.521 29.856,8 30.132,8.478 29.968,9.09 29.49,9.366 l -3.464,2 C 25.869,11.457 25.697,11.5 25.527,11.5 Z M 3.011,24.5 C 2.665,24.5 2.329,24.321 2.144,24 1.868,23.521 2.031,22.91 2.51,22.634 l 3.542,-2.046 c 0.478,-0.276 1.089,-0.113 1.366,0.366 0.276,0.479 0.113,1.09 -0.366,1.366 L 3.51,24.366 C 3.353,24.457 3.18,24.5 3.011,24.5 Z m 25.978,0 c -0.17,0 -0.342,-0.043 -0.499,-0.134 l -3.464,-2 C 24.548,22.09 24.384,21.479 24.66,21 c 0.276,-0.479 0.889,-0.644 1.366,-0.366 l 3.464,2 c 0.479,0.276 0.643,0.888 0.366,1.366 -0.185,0.321 -0.521,0.5 -0.867,0.5 z M 6.551,11.545 c -0.169,0 -0.342,-0.043 -0.499,-0.134 L 2.51,9.366 C 2.031,9.09 1.868,8.478 2.144,8 2.42,7.521 3.031,7.357 3.51,7.634 l 3.542,2.045 c 0.479,0.276 0.642,0.888 0.366,1.366 -0.185,0.321 -0.521,0.5 -0.867,0.5 z M 12,32 c -0.13,0 -0.263,-0.025 -0.39,-0.079 -0.447,-0.189 -0.693,-0.673 -0.584,-1.146 L 13.743,19 H 9 C 8.634,19 8.297,18.8 8.122,18.478 7.947,18.157 7.962,17.765 8.161,17.457 l 11,-17 c 0.265,-0.408 0.786,-0.566 1.229,-0.377 0.447,0.189 0.694,0.673 0.585,1.146 L 18.257,13 H 23 c 0.366,0 0.703,0.2 0.879,0.522 0.175,0.322 0.16,0.714 -0.039,1.021 l -11,17 C 12.65,31.836 12.331,32 12,32 Z M 10.838,17 H 15 c 0.305,0 0.593,0.139 0.783,0.378 0.189,0.238 0.26,0.55 0.192,0.847 L 14.256,25.674 21.162,15 H 17 c -0.305,0 -0.593,-0.139 -0.783,-0.377 -0.189,-0.238 -0.26,-0.55 -0.192,-0.848 l 1.719,-7.448 z"
         inkscape:connector-curvature="0"
         style="fill:#ffffff;fill-opacity:1;stroke:none;stroke-width:0;stroke-miterlimit:4;stroke-dasharray:none;stroke-opacity:1" />
    </g>
    <path
       style="fill:none;stroke:#ffffff;stroke-width:0.41055191;stroke-linecap:butt;stroke-linejoin:miter;stroke-miterlimit:4;stroke-dasharray:none;stroke-opacity:1"
       d="m 17.634507,256.76674 v 2.30936"
       id="path816"
       inkscape:connector-curvature="0" />
    <path
       inkscape:connector-curvature="0"
       id="path818"
       d="M 4.804779,269.59651 H 7.11413"
       style="fill:none;stroke:#ffffff;stroke-width:0.41055191;stroke-linecap:butt;stroke-linejoin:miter;stroke-miterlimit:4;stroke-dasharray:none;stroke-opacity:1" />
  </g>
</svg>
