<?xml version="1.0" encoding="UTF-8" standalone="no"?>
<!-- Created with Inkscape (http://www.inkscape.org/) -->

<svg
   xmlns:dc="http://purl.org/dc/elements/1.1/"
   xmlns:cc="http://creativecommons.org/ns#"
   xmlns:rdf="http://www.w3.org/1999/02/22-rdf-syntax-ns#"
   xmlns:svg="http://www.w3.org/2000/svg"
   xmlns="http://www.w3.org/2000/svg"
   xmlns:sodipodi="http://sodipodi.sourceforge.net/DTD/sodipodi-0.dtd"
   xmlns:inkscape="http://www.inkscape.org/namespaces/inkscape"
   width="15mm"
   height="14.999994mm"
   viewBox="0 0 15 14.999994"
   version="1.1"
   id="svg8"
   inkscape:version="0.92.3 (3ce5693, 2018-03-11)"
   sodipodi:docname="tile_icon_sensors.svg">
  <sodipodi:namedview
     id="base"
     pagecolor="#ffffff"
     bordercolor="#666666"
     borderopacity="1.0"
     inkscape:pageopacity="0.0"
     inkscape:pageshadow="2"
     inkscape:zoom="7.9195959"
     inkscape:cx="6.4616556"
     inkscape:cy="37.990607"
     inkscape:document-units="mm"
     inkscape:current-layer="layer1"
     showgrid="false"
     inkscape:window-width="1315"
     inkscape:window-height="744"
     inkscape:window-x="51"
     inkscape:window-y="24"
     inkscape:window-maximized="1" />
  <defs
     id="defs2" />
  <metadata
     id="metadata5">
    <rdf:RDF>
      <cc:Work
         rdf:about="">
        <dc:format>image/svg+xml</dc:format>
        <dc:type
           rdf:resource="http://purl.org/dc/dcmitype/StillImage" />
        <dc:title />
      </cc:Work>
    </rdf:RDF>
  </metadata>
  <g
     transform="translate(-4.6977514,-257.26971)"
     id="layer1"
     inkscape:groupmode="layer"
     inkscape:label="Border">
    <path
       id="path815"
       style="opacity:1;fill:none;fill-opacity:1;stroke:#ffffff;stroke-width:0.39164442;stroke-linecap:round;stroke-linejoin:round;stroke-miterlimit:4;stroke-dasharray:none;stroke-dashoffset:0;stroke-opacity:1;paint-order:stroke fill markers"
       d="m 12.197751,257.46553 a 7.3041719,7.3041724 0 0 0 -7.3041774,7.30417 7.3041719,7.3041724 0 0 0 7.3041774,7.30418 7.3041719,7.3041724 0 0 0 7.304178,-7.30418 7.3041719,7.3041724 0 0 0 -7.304178,-7.30417 z"
       inkscape:connector-curvature="0" />
    <path
       id="path830"
       d="m 15.168021,265.22495 h -0.61025 v -2.40481 c 0,-10e-4 2.6e-4,-0.002 2.6e-4,-0.003 0,-1.26725 -1.10934,-2.29821 -2.47309,-2.29821 0,0 0,0 0,0 0,0 -1.4e-4,0 -1.4e-4,0 -1.361879,0 -2.4824096,0.92079 -2.6019596,2.09124 -0.87451,0.0601 -1.53509,0.53534 -1.53509,1.1316 v 1.07238 c 0,0.118 0.0893,0.21351 0.19969,0.21351 h 0.45836 v 2.98983 c 0,0.11785 0.0893,0.2135 0.19969,0.2135 0.11036,0 0.19969,-0.0957 0.19969,-0.2135 v -2.98954 h 1.3306006 v 2.98982 c 0,0.11786 0.0893,0.21351 0.19969,0.21351 0.11036,0 0.19969,-0.0956 0.19969,-0.21351 v -2.98982 h 0.45703 c 4e-4,0 10e-4,1.4e-4 0.002,1.4e-4 0.11036,0 0.19969,-0.0955 0.19969,-0.21351 v -1.07253 c 0,-0.36339 -0.24575,-0.68152 -0.63515,-0.88848 -10e-4,-5.3e-4 -0.002,-0.002 -0.003,-0.002 -0.003,-0.002 -0.005,-0.002 -0.008,-0.003 -0.24136,-0.12624 -0.53677,-0.20965 -0.86319,-0.23527 0.121,-0.93588 1.06141,-1.66679 2.20071,-1.66679 0,0 0,0 1.4e-4,0 0,0 0,0 0,0 1.14276,0 2.07252,0.83852 2.07358,1.86934 0,5.4e-4 -1.3e-4,10e-4 -1.3e-4,0.002 v 2.40752 h -0.61026 c -0.70543,0 -1.27921,0.61377 -1.27921,1.36788 v 1.05843 c 0,0.7544 0.57391,1.36802 1.27921,1.36802 h 1.61989 c 0.70558,0 1.27949,-0.61377 1.27949,-1.36802 v -1.05843 c 0,-0.75425 -0.57405,-1.36788 -1.27949,-1.36788 z m -6.2192896,-0.62387 0.7436501,-1.56957 c 0.2641195,0.002 0.5000195,0.048 0.6965195,0.12028 l -0.6866695,1.44929 z m 0.27531,-1.52587 -0.72301,1.52587 h -0.15403 v -0.85887 c 0,-0.2676 0.34426,-0.55868 0.87704,-0.667 z m 1.7697896,1.52587 h -0.84389 l 0.59627,-1.25827 c 0.15763,0.12127 0.24775,0.26332 0.24775,0.3994 v 0.85887 z m 2.5543,1.05089 h 1.61989 c 0.48539,0 0.88011,0.42218 0.88011,0.94086 v 0.3157 h -0.76788 c -0.003,0 -0.005,5.4e-4 -0.007,5.4e-4 -0.006,2.9e-4 -0.0125,0.001 -0.0188,0.002 -0.007,0.001 -0.0138,0.002 -0.0206,0.004 -0.005,0.002 -0.0107,0.003 -0.016,0.005 -0.007,0.003 -0.0138,0.005 -0.0204,0.008 -0.005,0.003 -0.0101,0.006 -0.0152,0.009 -0.006,0.004 -0.012,0.007 -0.0176,0.0114 -0.005,0.004 -0.01,0.008 -0.0146,0.0128 -0.005,0.004 -0.01,0.009 -0.0142,0.0143 -0.004,0.005 -0.008,0.01 -0.0119,0.0152 -0.005,0.006 -0.009,0.0118 -0.0125,0.0183 -0.001,0.002 -0.003,0.003 -0.004,0.006 l -0.25201,0.4636 -0.61624,-1.16675 c -1.4e-4,-2.9e-4 -2.7e-4,-4.3e-4 -4.1e-4,-5.4e-4 -0.004,-0.008 -0.01,-0.0148 -0.0146,-0.0221 -0.003,-0.004 -0.006,-0.009 -0.009,-0.0131 -2.7e-4,-4.2e-4 -4e-4,-0.001 -5.1e-4,-0.001 -0.005,-0.006 -0.0101,-0.01 -0.0152,-0.0149 -0.005,-0.004 -0.008,-0.009 -0.013,-0.0127 -0.008,-0.006 -0.0163,-0.0115 -0.0248,-0.0165 -0.003,-0.002 -0.005,-0.004 -0.008,-0.005 -0.009,-0.005 -0.0194,-0.009 -0.0294,-0.0119 -0.003,-10e-4 -0.004,-0.002 -0.006,-0.003 -0.01,-0.003 -0.0196,-0.004 -0.0298,-0.006 -0.003,-2.9e-4 -0.005,-10e-4 -0.008,-0.002 -0.009,-5.4e-4 -0.0186,-1.4e-4 -0.0278,5.3e-4 -0.004,2.9e-4 -0.007,0 -0.0109,4.3e-4 -0.009,10e-4 -0.0181,0.004 -0.0269,0.006 -0.004,10e-4 -0.008,0.002 -0.0112,0.003 -0.01,0.003 -0.0188,0.008 -0.028,0.0131 -0.003,0.002 -0.005,0.002 -0.008,0.004 -1.3e-4,1.4e-4 -2.7e-4,2.9e-4 -5e-4,4.3e-4 -0.007,0.004 -0.0126,0.009 -0.019,0.0144 -0.005,0.004 -0.01,0.007 -0.0142,0.011 -2.7e-4,2.8e-4 -5.1e-4,4.3e-4 -10e-4,5.3e-4 l -0.68559,0.65157 h -0.57897 v -0.31599 c 2.7e-4,-0.51869 0.39499,-0.94087 0.88023,-0.94087 z m 1.61989,2.94029 h -1.61989 c -0.48524,0 -0.87983,-0.42217 -0.87983,-0.941 v -0.31571 h 0.65498 v 0 c 1.4e-4,0 1.4e-4,0 1.4e-4,0 h 1.3e-4 c 0.0226,-1.4e-4 0.0439,-0.005 0.0642,-0.0124 0.003,-10e-4 0.005,-0.002 0.008,-0.003 0.0205,-0.009 0.0392,-0.0208 0.0558,-0.0357 0.002,-0.002 0.004,-0.002 0.005,-0.003 l 0.5574,-0.52979 0.6659,1.26084 c 0.002,0.003 0.004,0.004 0.005,0.007 0.007,0.0114 0.0142,0.0222 0.0229,0.0323 0.003,0.003 0.006,0.007 0.008,0.01 0.0112,0.0114 0.0233,0.022 0.0371,0.0306 1.3e-4,1.5e-4 4e-4,1.5e-4 5.1e-4,2.9e-4 0.012,0.007 0.025,0.0124 0.0381,0.0169 0.0201,0.007 0.0409,0.0117 0.0615,0.0117 h 1.3e-4 1.4e-4 c 0.0168,0 0.0338,-0.003 0.0505,-0.007 0.008,-0.003 0.0163,-0.007 0.0246,-0.0106 0.008,-0.003 0.0156,-0.005 0.0231,-0.01 0.0141,-0.009 0.0264,-0.019 0.0378,-0.0303 0.003,-0.003 0.006,-0.007 0.009,-0.0101 0.009,-0.01 0.0163,-0.0203 0.023,-0.0316 0.002,-0.002 0.004,-0.004 0.005,-0.007 l 0.36942,-0.67953 h 0.65286 v 0.31571 c 0,0.51883 -0.39486,0.94101 -0.8801,0.94101 z"
       inkscape:connector-curvature="0"
       style="stroke-width:0.13765584;fill:#ffffff;fill-opacity:1" />
    <path
       style="fill:none;stroke:#ffffff;stroke-width:0.40000001;stroke-linecap:butt;stroke-linejoin:miter;stroke-miterlimit:4;stroke-dasharray:none;stroke-opacity:1"
       d="m 17.197751,257.2697 v 2.25"
       id="path814"
       inkscape:connector-curvature="0" />
    <path
       inkscape:connector-curvature="0"
       id="path816"
       d="m 4.6977514,269.7697 h 2.25"
       style="fill:none;stroke:#ffffff;stroke-width:0.40000001;stroke-linecap:butt;stroke-linejoin:miter;stroke-miterlimit:4;stroke-dasharray:none;stroke-opacity:1" />
  </g>
</svg>
