<?xml version="1.0" encoding="UTF-8" standalone="no"?>
<svg
   xmlns:dc="http://purl.org/dc/elements/1.1/"
   xmlns:cc="http://creativecommons.org/ns#"
   xmlns:rdf="http://www.w3.org/1999/02/22-rdf-syntax-ns#"
   xmlns:svg="http://www.w3.org/2000/svg"
   xmlns="http://www.w3.org/2000/svg"
   xmlns:sodipodi="http://sodipodi.sourceforge.net/DTD/sodipodi-0.dtd"
   xmlns:inkscape="http://www.inkscape.org/namespaces/inkscape"
   id="svg8"
   version="1.1"
   viewBox="0 0 15 15"
   height="15mm"
   width="15mm"
   sodipodi:docname="tile_icon_wave_generator.svg"
   inkscape:version="0.92.3 (3ce5693, 2018-03-11)">
  <sodipodi:namedview
     pagecolor="#ffffff"
     bordercolor="#666666"
     borderopacity="1"
     objecttolerance="10"
     gridtolerance="10"
     guidetolerance="10"
     inkscape:pageopacity="0"
     inkscape:pageshadow="2"
     inkscape:window-width="1315"
     inkscape:window-height="744"
     id="namedview905"
     showgrid="false"
     inkscape:zoom="7.0644683"
     inkscape:cx="2.82068"
     inkscape:cy="34.293327"
     inkscape:window-x="51"
     inkscape:window-y="24"
     inkscape:window-maximized="1"
     inkscape:current-layer="layer1" />
  <defs
     id="defs2" />
  <metadata
     id="metadata5">
    <rdf:RDF>
      <cc:Work
         rdf:about="">
        <dc:format>image/svg+xml</dc:format>
        <dc:type
           rdf:resource="http://purl.org/dc/dcmitype/StillImage" />
        <dc:title />
      </cc:Work>
    </rdf:RDF>
  </metadata>
  <g
     transform="matrix(0.97429971,0,0,0.97429672,-4.6814725,-250.16681)"
     id="layer1"
     style="stroke:#fffefe;stroke-opacity:1">
    <ellipse
       ry="7.4968724"
       rx="7.4968486"
       cy="264.46442"
       cx="12.502798"
       id="path815"
       style="opacity:1;fill:none;fill-opacity:1;stroke:#ffffff;stroke-width:0.40197626;stroke-linecap:round;stroke-linejoin:round;stroke-miterlimit:4;stroke-dasharray:none;stroke-dashoffset:0;stroke-opacity:1;paint-order:stroke fill markers" />
    <g
       id="g3716"
       transform="matrix(0.01757607,0,0,0.01749536,8.0828501,259.84911)"
       style="fill:#ffffff;fill-opacity:1;stroke:none;stroke-width:5.65668058;stroke-miterlimit:4;stroke-dasharray:none;stroke-opacity:1">
      <path
         id="path3712"
         d="m 256,320 c -70.688,0 -128,57.297 -128,128 H 384 C 384,377.297 326.688,320 256,320 Z m 0,64 c -5.891,0 -10.672,4.766 -10.672,10.672 v 32 h -93.875 c 4.109,-20.375 14.094,-39.078 29.125,-54.094 20.141,-20.156 46.938,-31.25 75.422,-31.25 28.484,0 55.281,11.094 75.422,31.25 15.031,15.016 25.016,33.719 29.125,54.094 h -93.875 v -32 C 266.672,388.766 261.891,384 256,384 Z"
         inkscape:connector-curvature="0"
         style="fill:#ffffff;fill-opacity:1;stroke:none;stroke-width:5.65668058;stroke-miterlimit:4;stroke-dasharray:none;stroke-opacity:1" />
    </g>
    <path
       id="path3714"
       style="fill:#ffffff;fill-opacity:1;stroke:none;stroke-width:0.19838737;stroke-miterlimit:4;stroke-dasharray:none;stroke-opacity:1"
       d="m 10.638395,261.35539 -0.04232,-0.0925 c -0.07718,-0.21747 -0.285359,-0.37329 -0.530317,-0.37329 -0.310604,0 -0.5624344,0.25068 -0.5624344,0.55985 0,0.24372 0.156523,0.45091 0.3748529,0.52773 v 1.15183 H 9.6909004 c -0.1032594,0 -0.18731,0.0835 -0.18731,0.18657 v 0.93313 H 8.9406121 c -0.1035405,0 -0.18731,0.0834 -0.18731,0.18672 v 4.10538 c 0,0.10333 0.083787,0.18672 0.18731,0.18672 h 7.1243409 c 0.103541,0 0.18731,-0.0834 0.18731,-0.18672 v -4.10538 c 0,-0.10332 -0.08379,-0.18672 -0.18731,-0.18672 h -0.562434 v -0.93313 c 0,-0.10307 -0.084,-0.18657 -0.187543,-0.18657 h -0.187582 v -1.15167 c 0.218611,-0.0768 0.375125,-0.28417 0.375125,-0.52789 0,-0.30917 -0.251831,-0.55985 -0.562435,-0.55985 -0.244976,0 -0.453101,0.15582 -0.530278,0.37329 l -0.0339,0.0911 c -0.0058,0.0416 -0.01053,0.16987 -1.47e-4,0.19681 l 0.03408,0.0852 c 0.0563,0.1591 0.182898,0.28514 0.342735,0.34132 v 1.15167 h -0.187039 c -0.10354,0 -0.187584,0.0835 -0.187581,0.18657 v 0.93313 h -3.750038 v -0.93313 c 0,-0.10307 -0.08379,-0.18657 -0.18731,-0.18657 h -0.187543 v -1.15156 c 0.159837,-0.0563 0.28643,-0.18233 0.343007,-0.34143 l 0.03901,-0.13449 z m -0.57604,0.0298 c 0.103541,0 0.05167,-0.0863 0.05167,0.0167 0,0.10293 0.05527,0.0982 -0.04828,0.0982 -0.1032591,0 -0.05847,0.0285 -0.05847,-0.0744 0,-0.10292 -0.048188,-0.0405 0.05507,-0.0405 z m 4.877729,0.0361 c 0.103259,0 0.0412,-0.0748 0.0412,0.0281 0,0.10293 0.06884,0.0608 -0.03442,0.0608 -0.103541,0 -0.06522,0.0319 -0.06522,-0.071 0,-0.10292 -0.04511,-0.0179 0.05843,-0.0179 z m -5.0616017,2.08098 h 0.3745807 v 0.74641 H 9.8784823 Z m 4.8743307,0 h 0.374581 v 0.74641 h -0.374581 z m -5.624619,1.11955 h 6.749216 v 3.73255 H 9.128194 Z"
       inkscape:connector-curvature="0"
       sodipodi:nodetypes="ccssccsscsssssssscssccssccccccscccsscccccsssssscssscccccccccccccccc" />
    <path
       style="fill:none;stroke:#ffffff;stroke-width:0.41055192;stroke-linecap:round;stroke-linejoin:bevel;stroke-miterlimit:4;stroke-dasharray:none;stroke-opacity:1;paint-order:stroke fill markers"
       d="m 10.053742,261.44369 c 0,-0.18717 0.972606,-2.41325 2.510724,0 1.380012,2.16519 2.444224,-0.0119 2.375618,-0.0224"
       id="path3750"
       inkscape:connector-curvature="0"
       sodipodi:nodetypes="csc" />
    <path
       style="fill:none;stroke:#ffffff;stroke-width:0.41055191;stroke-linecap:butt;stroke-linejoin:miter;stroke-miterlimit:4;stroke-dasharray:none;stroke-opacity:1"
       d="m 17.63469,256.76655 v 2.30936"
       id="path817"
       inkscape:connector-curvature="0" />
    <path
       inkscape:connector-curvature="0"
       id="path819"
       d="m 4.8049614,269.59632 h 2.309351"
       style="fill:none;stroke:#ffffff;stroke-width:0.41055191;stroke-linecap:butt;stroke-linejoin:miter;stroke-miterlimit:4;stroke-dasharray:none;stroke-opacity:1" />
  </g>
</svg>
