<?xml version="1.0" encoding="UTF-8" standalone="no"?>
<!-- Created with Inkscape (http://www.inkscape.org/) -->

<svg
   xmlns:dc="http://purl.org/dc/elements/1.1/"
   xmlns:cc="http://creativecommons.org/ns#"
   xmlns:rdf="http://www.w3.org/1999/02/22-rdf-syntax-ns#"
   xmlns:svg="http://www.w3.org/2000/svg"
   xmlns="http://www.w3.org/2000/svg"
   xmlns:sodipodi="http://sodipodi.sourceforge.net/DTD/sodipodi-0.dtd"
   xmlns:inkscape="http://www.inkscape.org/namespaces/inkscape"
   width="38.353958mm"
   height="16.969351mm"
   viewBox="0 0 135.89985 60.127621"
   id="svg8086"
   version="1.1"
   inkscape:version="0.91 r13725"
   sodipodi:docname="soundSimple.svg">
  <defs
     id="defs8088" />
  <sodipodi:namedview
     id="base"
     pagecolor="#ffffff"
     bordercolor="#666666"
     borderopacity="1.0"
     inkscape:pageopacity="0.0"
     inkscape:pageshadow="2"
     inkscape:zoom="0.35"
     inkscape:cx="-638.47864"
     inkscape:cy="50.06381"
     inkscape:document-units="px"
     inkscape:current-layer="layer1"
     showgrid="false"
     fit-margin-top="0"
     fit-margin-left="0"
     fit-margin-right="0"
     fit-margin-bottom="0"
     inkscape:window-width="1855"
     inkscape:window-height="1056"
     inkscape:window-x="65"
     inkscape:window-y="24"
     inkscape:window-maximized="1" />
  <metadata
     id="metadata8091">
    <rdf:RDF>
      <cc:Work
         rdf:about="">
        <dc:format>image/svg+xml</dc:format>
        <dc:type
           rdf:resource="http://purl.org/dc/dcmitype/StillImage" />
        <dc:title></dc:title>
      </cc:Work>
    </rdf:RDF>
  </metadata>
  <g
     inkscape:label="Layer 1"
     inkscape:groupmode="layer"
     id="layer1"
     transform="translate(-314.90722,-522.29839)">
    <path
       style="fill:#0000c2;fill-opacity:0;stroke:#0000c2;stroke-width:0.53999943;stroke-linecap:round;stroke-linejoin:round;stroke-opacity:1"
       inkscape:connector-curvature="0"
       id="path1854"
       d="m 331.6472,527.97223 0,-5.39999 1.8,3.86999 1.8,-3.86999 0,5.39999" />
    <path
       style="fill:#0000c2;fill-opacity:0;stroke:#0000c2;stroke-width:0.53999943;stroke-linecap:round;stroke-linejoin:round;stroke-opacity:1"
       inkscape:connector-curvature="0"
       id="path1856"
       d="m 339.92719,527.70223 -0.54,0.27 -0.99,0 -0.54,-0.27 -0.27,-0.45 0,-2.07 0.27,-0.53999 0.54,-0.27 0.99,0 0.54,0.27 0.27,0.53999 0,0.45 -2.61,0.54" />
    <path
       style="fill:#0000c2;fill-opacity:0;stroke:#0000c2;stroke-width:0.53999943;stroke-linecap:round;stroke-linejoin:round;stroke-opacity:1"
       inkscape:connector-curvature="0"
       id="path1858"
       d="m 344.78719,527.97223 0,-2.79 -0.27,-0.53999 -0.54,-0.27 -0.99,0 -0.54,0.27" />
    <path
       style="fill:#0000c2;fill-opacity:0;stroke:#0000c2;stroke-width:0.53999943;stroke-linecap:round;stroke-linejoin:round;stroke-opacity:1"
       inkscape:connector-curvature="0"
       id="path1860"
       d="m 344.78719,527.70223 -0.54,0.27 -1.26,0 -0.54,-0.27 -0.27,-0.45 0,-0.54 0.27,-0.54 0.54,-0.27 1.26,0 0.54,-0.27" />
    <path
       style="fill:#0000c2;fill-opacity:0;stroke:#0000c2;stroke-width:0.53999943;stroke-linecap:round;stroke-linejoin:round;stroke-opacity:1"
       inkscape:connector-curvature="0"
       id="path1862"
       d="m 347.03718,527.70223 0.54,0.27 1.08,0 0.45,-0.27 0.27,-0.45 0,-0.27 -0.27,-0.54 -0.45,-0.27 -0.81,0 -0.54,-0.27 -0.27,-0.45 0,-0.27 0.27,-0.53999 0.54,-0.27 0.81,0 0.45,0.27" />
    <path
       style="fill:#0000c2;fill-opacity:0;stroke:#0000c2;stroke-width:0.53999943;stroke-linecap:round;stroke-linejoin:round;stroke-opacity:1"
       inkscape:connector-curvature="0"
       id="path1864"
       d="m 354.05718,524.37224 0,3.59999" />
    <path
       style="fill:#0000c2;fill-opacity:0;stroke:#0000c2;stroke-width:0.53999943;stroke-linecap:round;stroke-linejoin:round;stroke-opacity:1"
       inkscape:connector-curvature="0"
       id="path1866"
       d="m 351.71718,524.37224 0,2.87999 0.27,0.45 0.54,0.27 0.72,0 0.54,-0.27 0.27,-0.27" />
    <path
       style="fill:#0000c2;fill-opacity:0;stroke:#0000c2;stroke-width:0.53999943;stroke-linecap:round;stroke-linejoin:round;stroke-opacity:1"
       inkscape:connector-curvature="0"
       id="path1868"
       d="m 356.57717,527.97223 0,-3.59999" />
    <path
       style="fill:#0000c2;fill-opacity:0;stroke:#0000c2;stroke-width:0.53999943;stroke-linecap:round;stroke-linejoin:round;stroke-opacity:1"
       inkscape:connector-curvature="0"
       id="path1870"
       d="m 356.57717,525.45223 0.27,-0.53999 0.27,-0.27 0.54,-0.27 0.45,0" />
    <path
       style="fill:#0000c2;fill-opacity:0;stroke:#0000c2;stroke-width:0.53999943;stroke-linecap:round;stroke-linejoin:round;stroke-opacity:1"
       inkscape:connector-curvature="0"
       id="path1872"
       d="m 361.97717,527.70223 -0.54,0.27 -0.99,0 -0.54,-0.27 -0.27,-0.45 0,-2.07 0.27,-0.53999 0.54,-0.27 0.99,0 0.54,0.27 0.27,0.53999 0,0.45 -2.61,0.54" />
    <path
       style="fill:#0000c2;fill-opacity:0;stroke:#0000c2;stroke-width:0.53999943;stroke-linecap:round;stroke-linejoin:round;stroke-opacity:1"
       inkscape:connector-curvature="0"
       id="path1874"
       d="m 368.36716,527.70223 0.81,0.27 1.26,0 0.54,-0.27 0.27,-0.27 0.27,-0.45 0,-0.54 -0.27,-0.54 -0.27,-0.27 -0.54,-0.18 -0.99,-0.27 -0.54,-0.26999 -0.27,-0.27 -0.27,-0.54 0,-0.45 0.27,-0.54 0.27,-0.27 0.54,-0.27 1.26,0 0.81,0.27" />
    <path
       style="fill:#0000c2;fill-opacity:0;stroke:#0000c2;stroke-width:0.53999943;stroke-linecap:round;stroke-linejoin:round;stroke-opacity:1"
       inkscape:connector-curvature="0"
       id="path1876"
       d="m 374.57715,527.97223 -0.54,-0.27 -0.27,-0.27 -0.27,-0.45 0,-1.53 0.27,-0.53999 0.27,-0.27 0.54,-0.27 0.72,0 0.54,0.27 0.27,0.27 0.27,0.53999 0,1.53 -0.27,0.45 -0.27,0.27 -0.54,0.27 -0.72,0" />
    <path
       style="fill:#0000c2;fill-opacity:0;stroke:#0000c2;stroke-width:0.53999943;stroke-linecap:round;stroke-linejoin:round;stroke-opacity:1"
       inkscape:connector-curvature="0"
       id="path1878"
       d="m 380.96715,524.37224 0,3.59999" />
    <path
       style="fill:#0000c2;fill-opacity:0;stroke:#0000c2;stroke-width:0.53999943;stroke-linecap:round;stroke-linejoin:round;stroke-opacity:1"
       inkscape:connector-curvature="0"
       id="path1880"
       d="m 378.62715,524.37224 0,2.87999 0.27,0.45 0.54,0.27 0.72,0 0.54,-0.27 0.27,-0.27" />
    <path
       style="fill:#0000c2;fill-opacity:0;stroke:#0000c2;stroke-width:0.53999943;stroke-linecap:round;stroke-linejoin:round;stroke-opacity:1"
       inkscape:connector-curvature="0"
       id="path1882"
       d="m 383.48714,524.37224 0,3.59999" />
    <path
       style="fill:#0000c2;fill-opacity:0;stroke:#0000c2;stroke-width:0.53999943;stroke-linecap:round;stroke-linejoin:round;stroke-opacity:1"
       inkscape:connector-curvature="0"
       id="path1884"
       d="m 383.48714,524.91224 0.27,-0.27 0.54,-0.27 0.72,0 0.54,0.27 0.27,0.53999 0,2.79" />
    <path
       style="fill:#0000c2;fill-opacity:0;stroke:#0000c2;stroke-width:0.53999943;stroke-linecap:round;stroke-linejoin:round;stroke-opacity:1"
       inkscape:connector-curvature="0"
       id="path1886"
       d="m 390.68714,527.97223 0,-5.39999" />
    <path
       style="fill:#0000c2;fill-opacity:0;stroke:#0000c2;stroke-width:0.53999943;stroke-linecap:round;stroke-linejoin:round;stroke-opacity:1"
       inkscape:connector-curvature="0"
       id="path1888"
       d="m 390.68714,527.70223 -0.54,0.27 -0.99,0 -0.54,-0.27 -0.27,-0.27 -0.27,-0.45 0,-1.53 0.27,-0.53999 0.27,-0.27 0.54,-0.27 0.99,0 0.54,0.27" />
    <path
       style="fill:#0000c2;fill-opacity:0;stroke:#0000c2;stroke-width:0.53999943;stroke-linecap:round;stroke-linejoin:round;stroke-opacity:1"
       inkscape:connector-curvature="0"
       id="path1890"
       d="m 399.68713,524.37224 0,3.59999" />
    <path
       style="fill:#0000c2;fill-opacity:0;stroke:#0000c2;stroke-width:0.53999943;stroke-linecap:round;stroke-linejoin:round;stroke-opacity:1"
       inkscape:connector-curvature="0"
       id="path1892"
       d="m 397.34713,524.37224 0,2.87999 0.27,0.45 0.54,0.27 0.72,0 0.54,-0.27 0.27,-0.27" />
    <path
       style="fill:#0000c2;fill-opacity:0;stroke:#0000c2;stroke-width:0.53999943;stroke-linecap:round;stroke-linejoin:round;stroke-opacity:1"
       inkscape:connector-curvature="0"
       id="path1894"
       d="m 401.93712,527.70223 0.54,0.27 1.08,0 0.45,-0.27 0.27,-0.45 0,-0.27 -0.27,-0.54 -0.45,-0.27 -0.81,0 -0.54,-0.27 -0.27,-0.45 0,-0.27 0.27,-0.53999 0.54,-0.27 0.81,0 0.45,0.27" />
    <path
       style="fill:#0000c2;fill-opacity:0;stroke:#0000c2;stroke-width:0.53999943;stroke-linecap:round;stroke-linejoin:round;stroke-opacity:1"
       inkscape:connector-curvature="0"
       id="path1896"
       d="m 406.61712,527.97223 0,-3.59999" />
    <path
       style="fill:#0000c2;fill-opacity:0;stroke:#0000c2;stroke-width:0.53999943;stroke-linecap:round;stroke-linejoin:round;stroke-opacity:1"
       inkscape:connector-curvature="0"
       id="path1898"
       d="m 406.61712,522.57224 -0.27,0.27 0.27,0.27 0.27,-0.27 -0.27,-0.27 0,0.54" />
    <path
       style="fill:#0000c2;fill-opacity:0;stroke:#0000c2;stroke-width:0.53999943;stroke-linecap:round;stroke-linejoin:round;stroke-opacity:1"
       inkscape:connector-curvature="0"
       id="path1900"
       d="m 409.22711,524.37224 0,3.59999" />
    <path
       style="fill:#0000c2;fill-opacity:0;stroke:#0000c2;stroke-width:0.53999943;stroke-linecap:round;stroke-linejoin:round;stroke-opacity:1"
       inkscape:connector-curvature="0"
       id="path1902"
       d="m 409.22711,524.91224 0.27,-0.27 0.54,-0.27 0.72,0 0.54,0.27 0.27,0.53999 0,2.79" />
    <path
       style="fill:#0000c2;fill-opacity:0;stroke:#0000c2;stroke-width:0.53999943;stroke-linecap:round;stroke-linejoin:round;stroke-opacity:1"
       inkscape:connector-curvature="0"
       id="path1904"
       d="m 416.42711,524.37224 0,4.40999 -0.27,0.45 -0.27,0.27 -0.45,0.27 -0.81,0 -0.54,-0.27" />
    <path
       style="fill:#0000c2;fill-opacity:0;stroke:#0000c2;stroke-width:0.53999943;stroke-linecap:round;stroke-linejoin:round;stroke-opacity:1"
       inkscape:connector-curvature="0"
       id="path1906"
       d="m 416.42711,527.70223 -0.54,0.27 -0.99,0 -0.54,-0.27 -0.27,-0.27 -0.27,-0.45 0,-1.53 0.27,-0.53999 0.27,-0.27 0.54,-0.27 0.99,0 0.54,0.27" />
    <path
       style="fill:#0000c2;fill-opacity:0;stroke:#0000c2;stroke-width:0.53999943;stroke-linecap:round;stroke-linejoin:round;stroke-opacity:1"
       inkscape:connector-curvature="0"
       id="path1908"
       d="m 423.0871,527.97223 0,-5.39999 1.8,3.86999 1.8,-3.86999 0,5.39999" />
    <path
       style="fill:#0000c2;fill-opacity:0;stroke:#0000c2;stroke-width:0.53999943;stroke-linecap:round;stroke-linejoin:round;stroke-opacity:1"
       inkscape:connector-curvature="0"
       id="path1910"
       d="m 429.29709,527.97223 0,-5.39999" />
    <path
       style="fill:#0000c2;fill-opacity:0;stroke:#0000c2;stroke-width:0.53999943;stroke-linecap:round;stroke-linejoin:round;stroke-opacity:1"
       inkscape:connector-curvature="0"
       id="path1912"
       d="m 435.05709,527.43223 -0.27,0.27 -0.81,0.27 -0.54,0 -0.72,-0.27 -0.54,-0.45 -0.27,-0.54 -0.27,-1.08 0,-0.71999 0.27,-1.08 0.27,-0.45 0.54,-0.54 0.72,-0.27 0.54,0 0.81,0.27 0.27,0.27" />
    <path
       style="fill:#840000;fill-opacity:0;stroke:#840000;stroke-width:0.53999943;stroke-linecap:round;stroke-linejoin:round;stroke-opacity:1"
       inkscape:connector-curvature="0"
       id="path1916"
       d="m 318.68722,553.1722 0,-5.39999 1.79999,3.87 1.8,-3.87 0,5.39999" />
    <path
       style="fill:#840000;fill-opacity:0;stroke:#840000;stroke-width:0.53999943;stroke-linecap:round;stroke-linejoin:round;stroke-opacity:1"
       inkscape:connector-curvature="0"
       id="path1918"
       d="m 324.89721,553.1722 0,-5.39999" />
    <path
       style="fill:#840000;fill-opacity:0;stroke:#840000;stroke-width:0.53999943;stroke-linecap:round;stroke-linejoin:round;stroke-opacity:1"
       inkscape:connector-curvature="0"
       id="path1920"
       d="m 330.6572,552.6322 -0.27,0.27 -0.81,0.27 -0.54,0 -0.72,-0.27 -0.53999,-0.45 -0.27,-0.53999 -0.27,-1.08 0,-0.72 0.27,-1.08 0.27,-0.45 0.53999,-0.54 0.72,-0.27 0.54,0 0.81,0.27 0.27,0.27" />
    <polyline
       transform="matrix(0.00899999,0,0,0.00899999,42.387519,224.49257)"
       style="fill:#840000;fill-opacity:0;stroke:#840000;stroke-width:100;stroke-linecap:round;stroke-linejoin:round;stroke-opacity:1"
       id="polyline1924"
       points="32500,36250 32200,35710 30330,35710 30330,36250 30330,36790 32200,36790 32500,36250 " />
    <path
       style="fill:#840000;fill-opacity:0;stroke:#840000;stroke-width:0.53999943;stroke-linecap:round;stroke-linejoin:round;stroke-opacity:1"
       inkscape:connector-curvature="0"
       id="path1996"
       d="m 321.56721,566.04219 -0.54,-0.27 -0.81,0 -0.72,0.27 -0.54,0.54 -0.26999,0.45 -0.27,1.08 0,0.72 0.27,1.08 0.26999,0.53999 0.54,0.45 0.72,0.27 0.54,0 0.81,-0.27 0.27,-0.27 0,-1.79999 -1.08,0" />
    <path
       style="fill:#840000;fill-opacity:0;stroke:#840000;stroke-width:0.53999943;stroke-linecap:round;stroke-linejoin:round;stroke-opacity:1"
       inkscape:connector-curvature="0"
       id="path1998"
       d="m 324.08721,571.17218 0,-5.39999 3.15,5.39999 0,-5.39999" />
    <path
       style="fill:#840000;fill-opacity:0;stroke:#840000;stroke-width:0.53999943;stroke-linecap:round;stroke-linejoin:round;stroke-opacity:1"
       inkscape:connector-curvature="0"
       id="path2000"
       d="m 329.7572,571.17218 0,-5.39999 1.35,0 0.72,0.27 0.54,0.54 0.27,0.45 0.27,1.08 0,0.72 -0.27,1.08 -0.27,0.53999 -0.54,0.45 -0.72,0.27 -1.35,0" />
    <polyline
       transform="matrix(0.00899999,0,0,0.00899999,42.387519,224.49257)"
       style="fill:#840000;fill-opacity:0;stroke:#840000;stroke-width:100;stroke-linecap:round;stroke-linejoin:round;stroke-opacity:1"
       id="polyline2004"
       points="32750,38250 32450,37710 30330,37710 30330,38250 30330,38790 32450,38790 32750,38250 " />
    <circle
       style="fill:#840000;fill-opacity:0;stroke:#840000;stroke-width:0.53999943;stroke-linecap:round;stroke-linejoin:round;stroke-opacity:1"
       id="circle2020"
       r="1.799998"
       cy="568.74219"
       cx="350.63718" />
    <circle
       style="fill:#840000;fill-opacity:0;stroke:#840000;stroke-width:0.53999943;stroke-linecap:round;stroke-linejoin:round;stroke-opacity:1"
       id="circle2022"
       r="1.799998"
       cy="550.74219"
       cx="350.63718" />
    <rect
       style="fill:#840000;fill-opacity:0;stroke:#840000;stroke-width:0.53999943;stroke-linecap:round;stroke-linejoin:round;stroke-opacity:1"
       id="rect2024"
       rx="0"
       height="4.4999952"
       width="4.4999952"
       y="566.49219"
       x="348.38718" />
    <rect
       style="fill:#840000;fill-opacity:0;stroke:#840000;stroke-width:0.53999943;stroke-linecap:round;stroke-linejoin:round;stroke-opacity:1"
       id="rect2026"
       rx="0"
       height="4.4999952"
       width="4.4999952"
       y="548.49219"
       x="348.38718" />
    <polyline
       transform="matrix(0.00899999,0,0,0.00899999,42.387519,224.49257)"
       style="fill:#840000;fill-opacity:0;stroke:#840000;stroke-width:60;stroke-linecap:round;stroke-linejoin:round;stroke-opacity:1"
       id="polyline2028"
       points="36250,35750 37250,36250 37250,38250 36250,38750 36250,38750 " />
    <polyline
       transform="matrix(0.00899999,0,0,0.00899999,42.387519,224.49257)"
       style="fill:#840000;fill-opacity:0;stroke:#840000;stroke-width:60;stroke-linecap:round;stroke-linejoin:round;stroke-opacity:1"
       id="polyline2030"
       points="34250,36250 36250,35750 36250,38750 34250,38250 34250,36250 34250,36250 " />
    <path
       style="fill:#840000;fill-opacity:0;stroke:#840000;stroke-width:0.53999943;stroke-linecap:round;stroke-linejoin:round;stroke-opacity:1"
       inkscape:connector-curvature="0"
       id="path2032"
       d="m 350.63718,550.74221 -8.99999,0" />
    <path
       style="fill:#840000;fill-opacity:0;stroke:#840000;stroke-width:0.53999943;stroke-linecap:round;stroke-linejoin:round;stroke-opacity:1"
       inkscape:connector-curvature="0"
       id="path2034"
       d="m 338.57719,549.66221 0,-4.5 1.53,3.15 1.44,-3.15 0,4.5" />
    <path
       style="fill:#840000;fill-opacity:0;stroke:#840000;stroke-width:0.53999943;stroke-linecap:round;stroke-linejoin:round;stroke-opacity:1"
       inkscape:connector-curvature="0"
       id="path2036"
       d="m 343.70719,549.66221 0,-4.5" />
    <path
       style="fill:#840000;fill-opacity:0;stroke:#840000;stroke-width:0.53999943;stroke-linecap:round;stroke-linejoin:round;stroke-opacity:1"
       inkscape:connector-curvature="0"
       id="path2038"
       d="m 348.38718,549.21221 -0.18,0.18 -0.63,0.27 -0.45,0 -0.63,-0.27 -0.45,-0.45 -0.17999,-0.36 -0.18,-0.9 0,-0.63 0.18,-0.81 0.17999,-0.45 0.45,-0.45 0.63,-0.18 0.45,0 0.63,0.18 0.18,0.18" />
    <path
       style="fill:#840000;fill-opacity:0;stroke:#840000;stroke-width:0.53999943;stroke-linecap:round;stroke-linejoin:round;stroke-opacity:1"
       inkscape:connector-curvature="0"
       id="path2040"
       d="m 350.36718,547.95221 3.42,0" />
    <path
       style="fill:#840000;fill-opacity:0;stroke:#840000;stroke-width:0.53999943;stroke-linecap:round;stroke-linejoin:round;stroke-opacity:1"
       inkscape:connector-curvature="0"
       id="path2042"
       d="m 352.07718,549.66221 0,-3.42" />
    <path
       style="fill:#840000;fill-opacity:0;stroke:#840000;stroke-width:0.53999943;stroke-linecap:round;stroke-linejoin:round;stroke-opacity:1"
       inkscape:connector-curvature="0"
       id="path2044"
       d="m 350.63718,568.74219 -8.99999,0" />
    <path
       style="fill:#840000;fill-opacity:0;stroke:#840000;stroke-width:0.53999943;stroke-linecap:round;stroke-linejoin:round;stroke-opacity:1"
       inkscape:connector-curvature="0"
       id="path2046"
       d="m 338.57719,567.66219 0,-4.5 1.53,3.15 1.44,-3.15 0,4.5" />
    <path
       style="fill:#840000;fill-opacity:0;stroke:#840000;stroke-width:0.53999943;stroke-linecap:round;stroke-linejoin:round;stroke-opacity:1"
       inkscape:connector-curvature="0"
       id="path2048"
       d="m 343.70719,567.66219 0,-4.5" />
    <path
       style="fill:#840000;fill-opacity:0;stroke:#840000;stroke-width:0.53999943;stroke-linecap:round;stroke-linejoin:round;stroke-opacity:1"
       inkscape:connector-curvature="0"
       id="path2050"
       d="m 348.38718,567.21219 -0.18,0.18 -0.63,0.27 -0.45,0 -0.63,-0.27 -0.45,-0.45 -0.17999,-0.36 -0.18,-0.9 0,-0.63 0.18,-0.81 0.17999,-0.45 0.45,-0.45 0.63,-0.18 0.45,0 0.63,0.18 0.18,0.18" />
    <path
       style="fill:#840000;fill-opacity:0;stroke:#840000;stroke-width:0.53999943;stroke-linecap:round;stroke-linejoin:round;stroke-opacity:1"
       inkscape:connector-curvature="0"
       id="path2052"
       d="m 350.36718,565.95219 3.42,0" />
    <path
       style="fill:#008484;fill-opacity:0;stroke:#008484;stroke-width:0.53999943;stroke-linecap:round;stroke-linejoin:round;stroke-opacity:1"
       inkscape:connector-curvature="0"
       id="path2056"
       d="m 323.36721,582.15217 0,-5.39999 1.8,3.86999 1.8,-3.86999 0,5.39999" />
    <path
       style="fill:#008484;fill-opacity:0;stroke:#008484;stroke-width:0.53999943;stroke-linecap:round;stroke-linejoin:round;stroke-opacity:1"
       inkscape:connector-curvature="0"
       id="path2058"
       d="m 329.5772,582.15217 0,-5.39999" />
    <path
       style="fill:#008484;fill-opacity:0;stroke:#008484;stroke-width:0.53999943;stroke-linecap:round;stroke-linejoin:round;stroke-opacity:1"
       inkscape:connector-curvature="0"
       id="path2060"
       d="m 335.3372,581.61217 -0.27,0.27 -0.81,0.27 -0.54,0 -0.72,-0.27 -0.54,-0.45 -0.27,-0.54 -0.27,-1.08 0,-0.72 0.27,-1.07999 0.27,-0.45 0.54,-0.54 0.72,-0.27 0.54,0 0.81,0.27 0.27,0.27" />
    <path
       style="fill:#008484;fill-opacity:0;stroke:#008484;stroke-width:0.53999943;stroke-linecap:round;stroke-linejoin:round;stroke-opacity:1"
       inkscape:connector-curvature="0"
       id="path2062"
       d="m 340.73719,582.15217 -1.8,-2.52" />
    <path
       style="fill:#008484;fill-opacity:0;stroke:#008484;stroke-width:0.53999943;stroke-linecap:round;stroke-linejoin:round;stroke-opacity:1"
       inkscape:connector-curvature="0"
       id="path2064"
       d="m 337.58719,582.15217 0,-5.39999 2.07,0 0.54,0.27 0.27,0.27 0.27,0.54 0,0.72 -0.27,0.53999 -0.27,0.27 -0.54,0.27 -2.07,0" />
    <path
       style="fill:#008484;fill-opacity:0;stroke:#008484;stroke-width:0.53999943;stroke-linecap:round;stroke-linejoin:round;stroke-opacity:1"
       inkscape:connector-curvature="0"
       id="path2066"
       d="m 344.06719,576.75218 0.99,0 0.54,0.27 0.53999,0.54 0.18,0.99 0,1.79999 -0.18,1.08 -0.53999,0.45 -0.54,0.27 -0.99,0 -0.54,-0.27 -0.54,-0.45 -0.27,-1.08 0,-1.79999 0.27,-0.99 0.54,-0.54 0.54,-0.27" />
    <path
       style="fill:#008484;fill-opacity:0;stroke:#008484;stroke-width:0.53999943;stroke-linecap:round;stroke-linejoin:round;stroke-opacity:1"
       inkscape:connector-curvature="0"
       id="path2068"
       d="m 348.65718,582.15217 0,-5.39999 2.07,0 0.54,0.27 0.27,0.27 0.27,0.54 0,0.72 -0.27,0.53999 -0.27,0.27 -0.54,0.27 -2.07,0" />
    <path
       style="fill:#008484;fill-opacity:0;stroke:#008484;stroke-width:0.53999943;stroke-linecap:round;stroke-linejoin:round;stroke-opacity:1"
       inkscape:connector-curvature="0"
       id="path2070"
       d="m 354.05718,582.15217 0,-5.39999" />
    <path
       style="fill:#008484;fill-opacity:0;stroke:#008484;stroke-width:0.53999943;stroke-linecap:round;stroke-linejoin:round;stroke-opacity:1"
       inkscape:connector-curvature="0"
       id="path2072"
       d="m 354.05718,579.36217 3.14999,0" />
    <path
       style="fill:#008484;fill-opacity:0;stroke:#008484;stroke-width:0.53999943;stroke-linecap:round;stroke-linejoin:round;stroke-opacity:1"
       inkscape:connector-curvature="0"
       id="path2074"
       d="m 357.20717,582.15217 0,-5.39999" />
    <path
       style="fill:#008484;fill-opacity:0;stroke:#008484;stroke-width:0.53999943;stroke-linecap:round;stroke-linejoin:round;stroke-opacity:1"
       inkscape:connector-curvature="0"
       id="path2076"
       d="m 360.80717,576.75218 0.99,0 0.54,0.27 0.54,0.54 0.18,0.99 0,1.79999 -0.18,1.08 -0.54,0.45 -0.54,0.27 -0.99,0 -0.54,-0.27 -0.54,-0.45 -0.27,-1.08 0,-1.79999 0.27,-0.99 0.54,-0.54 0.54,-0.27" />
    <path
       style="fill:#008484;fill-opacity:0;stroke:#008484;stroke-width:0.53999943;stroke-linecap:round;stroke-linejoin:round;stroke-opacity:1"
       inkscape:connector-curvature="0"
       id="path2078"
       d="m 365.39716,582.15217 0,-5.39999 3.15,5.39999 0,-5.39999" />
    <path
       style="fill:#008484;fill-opacity:0;stroke:#008484;stroke-width:0.53999943;stroke-linecap:round;stroke-linejoin:round;stroke-opacity:1"
       inkscape:connector-curvature="0"
       id="path2080"
       d="m 371.06716,579.36217 1.8,0" />
    <path
       style="fill:#008484;fill-opacity:0;stroke:#008484;stroke-width:0.53999943;stroke-linecap:round;stroke-linejoin:round;stroke-opacity:1"
       inkscape:connector-curvature="0"
       id="path2082"
       d="m 373.67715,582.15217 -2.60999,0 0,-5.39999 2.60999,0" />
    <path
       style="fill:#008400;fill-opacity:0;stroke:#008400;stroke-width:0.53999943;stroke-linecap:round;stroke-linejoin:round;stroke-opacity:1"
       inkscape:connector-curvature="0"
       id="path2086"
       d="m 337.13719,568.74219 4.5,0" />
    <path
       style="fill:#008400;fill-opacity:0;stroke:#008400;stroke-width:0.53999943;stroke-linecap:round;stroke-linejoin:round;stroke-opacity:1"
       inkscape:connector-curvature="0"
       id="path2088"
       d="m 334.8872,550.74221 6.74999,0" />
    <path
       style="fill:#0000c2;fill-opacity:0;stroke:#0000c2;stroke-width:0.53999943;stroke-linecap:round;stroke-linejoin:round;stroke-opacity:1"
       inkscape:connector-curvature="0"
       id="path2092"
       d="m 391.67713,553.2622 3.06,0" />
    <path
       style="fill:#0000c2;fill-opacity:0;stroke:#0000c2;stroke-width:0.53999943;stroke-linecap:round;stroke-linejoin:round;stroke-opacity:1"
       inkscape:connector-curvature="0"
       id="path2094"
       d="m 393.20713,558.6622 0,-5.4" />
    <path
       style="fill:#0000c2;fill-opacity:0;stroke:#0000c2;stroke-width:0.53999943;stroke-linecap:round;stroke-linejoin:round;stroke-opacity:1"
       inkscape:connector-curvature="0"
       id="path2096"
       d="m 396.53713,558.6622 0,-3.6" />
    <path
       style="fill:#0000c2;fill-opacity:0;stroke:#0000c2;stroke-width:0.53999943;stroke-linecap:round;stroke-linejoin:round;stroke-opacity:1"
       inkscape:connector-curvature="0"
       id="path2098"
       d="m 396.53713,556.1422 0.27,-0.54 0.27,-0.27 0.54,-0.27 0.45,0" />
    <path
       style="fill:#0000c2;fill-opacity:0;stroke:#0000c2;stroke-width:0.53999943;stroke-linecap:round;stroke-linejoin:round;stroke-opacity:1"
       inkscape:connector-curvature="0"
       id="path2100"
       d="m 399.41713,555.0622 1.25999,3.6" />
    <path
       style="fill:#0000c2;fill-opacity:0;stroke:#0000c2;stroke-width:0.53999943;stroke-linecap:round;stroke-linejoin:round;stroke-opacity:1"
       inkscape:connector-curvature="0"
       id="path2102"
       d="m 401.93712,555.0622 -1.26,3.6 -0.54,1.26 -0.26999,0.27 -0.45,0.27" />
    <path
       style="fill:#0000c2;fill-opacity:0;stroke:#0000c2;stroke-width:0.53999943;stroke-linecap:round;stroke-linejoin:round;stroke-opacity:1"
       inkscape:connector-curvature="0"
       id="path2104"
       d="m 408.14712,558.6622 0,-5.4 1.34999,0 0.72,0.27 0.54,0.54 0.27,0.45 0.27,1.08 0,0.72 -0.27,1.08 -0.27,0.54 -0.54,0.45 -0.72,0.27 -1.34999,0" />
    <path
       style="fill:#0000c2;fill-opacity:0;stroke:#0000c2;stroke-width:0.53999943;stroke-linecap:round;stroke-linejoin:round;stroke-opacity:1"
       inkscape:connector-curvature="0"
       id="path2106"
       d="m 413.54711,558.6622 0,-3.6" />
    <path
       style="fill:#0000c2;fill-opacity:0;stroke:#0000c2;stroke-width:0.53999943;stroke-linecap:round;stroke-linejoin:round;stroke-opacity:1"
       inkscape:connector-curvature="0"
       id="path2108"
       d="m 413.54711,553.2622 -0.27,0.27 0.27,0.27 0.27,-0.27 -0.27,-0.27 0,0.54" />
    <path
       style="fill:#0000c2;fill-opacity:0;stroke:#0000c2;stroke-width:0.53999943;stroke-linecap:round;stroke-linejoin:round;stroke-opacity:1"
       inkscape:connector-curvature="0"
       id="path2110"
       d="m 415.43711,555.0622 2.07,0" />
    <path
       style="fill:#0000c2;fill-opacity:0;stroke:#0000c2;stroke-width:0.53999943;stroke-linecap:round;stroke-linejoin:round;stroke-opacity:1"
       inkscape:connector-curvature="0"
       id="path2112"
       d="m 416.15711,558.6622 0,-4.59 0.27,-0.54 0.54,-0.27 0.54,0" />
    <path
       style="fill:#0000c2;fill-opacity:0;stroke:#0000c2;stroke-width:0.53999943;stroke-linecap:round;stroke-linejoin:round;stroke-opacity:1"
       inkscape:connector-curvature="0"
       id="path2114"
       d="m 418.4971,555.0622 2.07,0" />
    <path
       style="fill:#0000c2;fill-opacity:0;stroke:#0000c2;stroke-width:0.53999943;stroke-linecap:round;stroke-linejoin:round;stroke-opacity:1"
       inkscape:connector-curvature="0"
       id="path2116"
       d="m 419.2171,558.6622 0,-4.59 0.27,-0.54 0.54,-0.27 0.54,0" />
    <path
       style="fill:#0000c2;fill-opacity:0;stroke:#0000c2;stroke-width:0.53999943;stroke-linecap:round;stroke-linejoin:round;stroke-opacity:1"
       inkscape:connector-curvature="0"
       id="path2118"
       d="m 424.3471,558.3922 -0.54,0.27 -0.99,0 -0.54,-0.27 -0.27,-0.45 0,-2.07 0.27,-0.54 0.54,-0.27 0.99,0 0.54,0.27 0.27,0.54 0,0.45 -2.61,0.54" />
    <path
       style="fill:#0000c2;fill-opacity:0;stroke:#0000c2;stroke-width:0.53999943;stroke-linecap:round;stroke-linejoin:round;stroke-opacity:1"
       inkscape:connector-curvature="0"
       id="path2120"
       d="m 426.8671,558.6622 0,-3.6" />
    <path
       style="fill:#0000c2;fill-opacity:0;stroke:#0000c2;stroke-width:0.53999943;stroke-linecap:round;stroke-linejoin:round;stroke-opacity:1"
       inkscape:connector-curvature="0"
       id="path2122"
       d="m 426.8671,556.1422 0.27,-0.54 0.26999,-0.27 0.54,-0.27 0.45,0" />
    <path
       style="fill:#0000c2;fill-opacity:0;stroke:#0000c2;stroke-width:0.53999943;stroke-linecap:round;stroke-linejoin:round;stroke-opacity:1"
       inkscape:connector-curvature="0"
       id="path2124"
       d="m 432.26709,558.3922 -0.54,0.27 -0.99,0 -0.54,-0.27 -0.27,-0.45 0,-2.07 0.27,-0.54 0.54,-0.27 0.99,0 0.54,0.27 0.27,0.54 0,0.45 -2.61,0.54" />
    <path
       style="fill:#0000c2;fill-opacity:0;stroke:#0000c2;stroke-width:0.53999943;stroke-linecap:round;stroke-linejoin:round;stroke-opacity:1"
       inkscape:connector-curvature="0"
       id="path2126"
       d="m 434.78709,555.0622 0,3.6" />
    <path
       style="fill:#0000c2;fill-opacity:0;stroke:#0000c2;stroke-width:0.53999943;stroke-linecap:round;stroke-linejoin:round;stroke-opacity:1"
       inkscape:connector-curvature="0"
       id="path2128"
       d="m 434.78709,555.6022 0.27,-0.27 0.54,-0.27 0.72,0 0.53999,0.27 0.27,0.54 0,2.79" />
    <path
       style="fill:#0000c2;fill-opacity:0;stroke:#0000c2;stroke-width:0.53999943;stroke-linecap:round;stroke-linejoin:round;stroke-opacity:1"
       inkscape:connector-curvature="0"
       id="path2130"
       d="m 438.92708,555.0622 2.07,0" />
    <path
       style="fill:#0000c2;fill-opacity:0;stroke:#0000c2;stroke-width:0.53999943;stroke-linecap:round;stroke-linejoin:round;stroke-opacity:1"
       inkscape:connector-curvature="0"
       id="path2132"
       d="m 439.64708,553.2622 0,4.68 0.27,0.45 0.54,0.27 0.54,0" />
    <path
       style="fill:#0000c2;fill-opacity:0;stroke:#0000c2;stroke-width:0.53999943;stroke-linecap:round;stroke-linejoin:round;stroke-opacity:1"
       inkscape:connector-curvature="0"
       id="path2134"
       d="m 392.12713,565.95219 0.81,0.27 1.26,0 0.54,-0.27 0.27,-0.27 0.27,-0.45 0,-0.54 -0.27,-0.54 -0.27,-0.27 -0.54,-0.18 -0.99,-0.27 -0.54,-0.27 -0.27,-0.27 -0.27,-0.54 0,-0.45 0.27,-0.54 0.27,-0.27 0.54,-0.26999 1.26,0 0.81,0.26999" />
    <path
       style="fill:#0000c2;fill-opacity:0;stroke:#0000c2;stroke-width:0.53999943;stroke-linecap:round;stroke-linejoin:round;stroke-opacity:1"
       inkscape:connector-curvature="0"
       id="path2136"
       d="m 398.33713,566.22219 -0.54,-0.27 -0.27,-0.27 -0.27,-0.45 0,-1.53 0.27,-0.54 0.27,-0.27 0.54,-0.27 0.72,0 0.54,0.27 0.27,0.27 0.26999,0.54 0,1.53 -0.26999,0.45 -0.27,0.27 -0.54,0.27 -0.72,0" />
    <path
       style="fill:#0000c2;fill-opacity:0;stroke:#0000c2;stroke-width:0.53999943;stroke-linecap:round;stroke-linejoin:round;stroke-opacity:1"
       inkscape:connector-curvature="0"
       id="path2138"
       d="m 404.72712,562.62219 0,3.6" />
    <path
       style="fill:#0000c2;fill-opacity:0;stroke:#0000c2;stroke-width:0.53999943;stroke-linecap:round;stroke-linejoin:round;stroke-opacity:1"
       inkscape:connector-curvature="0"
       id="path2140"
       d="m 402.38712,562.62219 0,2.88 0.27,0.45 0.54,0.27 0.72,0 0.54,-0.27 0.27,-0.27" />
    <path
       style="fill:#0000c2;fill-opacity:0;stroke:#0000c2;stroke-width:0.53999943;stroke-linecap:round;stroke-linejoin:round;stroke-opacity:1"
       inkscape:connector-curvature="0"
       id="path2142"
       d="m 407.24712,562.62219 0,3.6" />
    <path
       style="fill:#0000c2;fill-opacity:0;stroke:#0000c2;stroke-width:0.53999943;stroke-linecap:round;stroke-linejoin:round;stroke-opacity:1"
       inkscape:connector-curvature="0"
       id="path2144"
       d="m 407.24712,563.16219 0.27,-0.27 0.54,-0.27 0.72,0 0.53999,0.27 0.27,0.54 0,2.79" />
    <path
       style="fill:#0000c2;fill-opacity:0;stroke:#0000c2;stroke-width:0.53999943;stroke-linecap:round;stroke-linejoin:round;stroke-opacity:1"
       inkscape:connector-curvature="0"
       id="path2146"
       d="m 414.44711,566.22219 0,-5.39999" />
    <path
       style="fill:#0000c2;fill-opacity:0;stroke:#0000c2;stroke-width:0.53999943;stroke-linecap:round;stroke-linejoin:round;stroke-opacity:1"
       inkscape:connector-curvature="0"
       id="path2148"
       d="m 414.44711,565.95219 -0.54,0.27 -0.99,0 -0.54,-0.27 -0.27,-0.27 -0.27,-0.45 0,-1.53 0.27,-0.54 0.27,-0.27 0.54,-0.27 0.99,0 0.54,0.27" />
    <path
       style="fill:#0000c2;fill-opacity:0;stroke:#0000c2;stroke-width:0.53999943;stroke-linecap:round;stroke-linejoin:round;stroke-opacity:1"
       inkscape:connector-curvature="0"
       id="path2150"
       d="m 420.8371,565.95219 0.81,0.27 1.26,0 0.54,-0.27 0.27,-0.27 0.27,-0.45 0,-0.54 -0.27,-0.54 -0.27,-0.27 -0.54,-0.18 -0.99,-0.27 -0.54,-0.27 -0.27,-0.27 -0.27,-0.54 0,-0.45 0.27,-0.54 0.27,-0.27 0.54,-0.26999 1.26,0 0.81,0.26999" />
    <path
       style="fill:#0000c2;fill-opacity:0;stroke:#0000c2;stroke-width:0.53999943;stroke-linecap:round;stroke-linejoin:round;stroke-opacity:1"
       inkscape:connector-curvature="0"
       id="path2152"
       d="m 427.0471,566.22219 -0.54,-0.27 -0.27,-0.27 -0.27,-0.45 0,-1.53 0.27,-0.54 0.27,-0.27 0.54,-0.27 0.71999,0 0.54,0.27 0.27,0.27 0.27,0.54 0,1.53 -0.27,0.45 -0.27,0.27 -0.54,0.27 -0.71999,0" />
    <path
       style="fill:#0000c2;fill-opacity:0;stroke:#0000c2;stroke-width:0.53999943;stroke-linecap:round;stroke-linejoin:round;stroke-opacity:1"
       inkscape:connector-curvature="0"
       id="path2154"
       d="m 433.43709,562.62219 0,3.6" />
    <path
       style="fill:#0000c2;fill-opacity:0;stroke:#0000c2;stroke-width:0.53999943;stroke-linecap:round;stroke-linejoin:round;stroke-opacity:1"
       inkscape:connector-curvature="0"
       id="path2156"
       d="m 431.09709,562.62219 0,2.88 0.27,0.45 0.54,0.27 0.72,0 0.54,-0.27 0.27,-0.27" />
    <path
       style="fill:#0000c2;fill-opacity:0;stroke:#0000c2;stroke-width:0.53999943;stroke-linecap:round;stroke-linejoin:round;stroke-opacity:1"
       inkscape:connector-curvature="0"
       id="path2158"
       d="m 435.95709,566.22219 0,-3.6" />
    <path
       style="fill:#0000c2;fill-opacity:0;stroke:#0000c2;stroke-width:0.53999943;stroke-linecap:round;stroke-linejoin:round;stroke-opacity:1"
       inkscape:connector-curvature="0"
       id="path2160"
       d="m 435.95709,563.70219 0.27,-0.54 0.26999,-0.27 0.54,-0.27 0.45,0" />
    <path
       style="fill:#0000c2;fill-opacity:0;stroke:#0000c2;stroke-width:0.53999943;stroke-linecap:round;stroke-linejoin:round;stroke-opacity:1"
       inkscape:connector-curvature="0"
       id="path2162"
       d="m 441.62708,565.95219 -0.54,0.27 -0.99,0 -0.54,-0.27 -0.27,-0.27 -0.27,-0.45 0,-1.53 0.27,-0.54 0.27,-0.27 0.54,-0.27 0.99,0 0.54,0.27" />
    <path
       style="fill:#0000c2;fill-opacity:0;stroke:#0000c2;stroke-width:0.53999943;stroke-linecap:round;stroke-linejoin:round;stroke-opacity:1"
       inkscape:connector-curvature="0"
       id="path2164"
       d="m 445.94707,565.95219 -0.54,0.27 -0.98999,0 -0.54,-0.27 -0.27,-0.45 0,-2.07 0.27,-0.54 0.54,-0.27 0.98999,0 0.54,0.27 0.27,0.54 0,0.45 -2.60999,0.54" />
    <path
       style="fill:#0000c2;fill-opacity:0;stroke:#0000c2;stroke-width:0.53999943;stroke-linecap:round;stroke-linejoin:round;stroke-opacity:1"
       inkscape:connector-curvature="0"
       id="path2166"
       d="m 448.19707,565.95219 0.54,0.27 1.08,0 0.45,-0.27 0.27,-0.45 0,-0.27 -0.27,-0.54 -0.45,-0.27 -0.81,0 -0.54,-0.27 -0.27,-0.45 0,-0.27 0.27,-0.54 0.54,-0.27 0.81,0 0.45,0.27" />
  </g>
</svg>
