<?xml version="1.0" encoding="UTF-8" standalone="no"?>
<!-- Created with Inkscape (http://www.inkscape.org/) -->

<svg
   xmlns:dc="http://purl.org/dc/elements/1.1/"
   xmlns:cc="http://creativecommons.org/ns#"
   xmlns:rdf="http://www.w3.org/1999/02/22-rdf-syntax-ns#"
   xmlns:svg="http://www.w3.org/2000/svg"
   xmlns="http://www.w3.org/2000/svg"
   xmlns:sodipodi="http://sodipodi.sourceforge.net/DTD/sodipodi-0.dtd"
   xmlns:inkscape="http://www.inkscape.org/namespaces/inkscape"
   width="42.951351mm"
   height="18.872179mm"
   viewBox="0 0 152.18983 66.869925"
   id="svg8958"
   version="1.1"
   inkscape:version="0.91 r13725"
   sodipodi:docname="soundBuzzer.svg">
  <defs
     id="defs8960" />
  <sodipodi:namedview
     id="base"
     pagecolor="#ffffff"
     bordercolor="#666666"
     borderopacity="1.0"
     inkscape:pageopacity="0.0"
     inkscape:pageshadow="2"
     inkscape:zoom="0.35"
     inkscape:cx="-461.76223"
     inkscape:cy="-17.993609"
     inkscape:document-units="px"
     inkscape:current-layer="layer1"
     showgrid="false"
     fit-margin-top="0"
     fit-margin-left="0"
     fit-margin-right="0"
     fit-margin-bottom="0"
     inkscape:window-width="1855"
     inkscape:window-height="1056"
     inkscape:window-x="65"
     inkscape:window-y="24"
     inkscape:window-maximized="1" />
  <metadata
     id="metadata8963">
    <rdf:RDF>
      <cc:Work
         rdf:about="">
        <dc:format>image/svg+xml</dc:format>
        <dc:type
           rdf:resource="http://purl.org/dc/dcmitype/StillImage" />
        <dc:title></dc:title>
      </cc:Work>
    </rdf:RDF>
  </metadata>
  <g
     inkscape:label="Layer 1"
     inkscape:groupmode="layer"
     id="layer1"
     transform="translate(-138.1908,-447.49867)">
    <path
       style="fill:#840000;fill-opacity:0;stroke:#840000;stroke-width:0.53999943;stroke-linecap:round;stroke-linejoin:round;stroke-opacity:1"
       inkscape:connector-curvature="0"
       id="path1928"
       d="m 272.47065,472.33864 1.26,5.4 0.99,-3.87 1.08,3.87 1.26,-5.4" />
    <path
       style="fill:#840000;fill-opacity:0;stroke:#840000;stroke-width:0.53999943;stroke-linecap:round;stroke-linejoin:round;stroke-opacity:1"
       inkscape:connector-curvature="0"
       id="path1930"
       d="m 282.01064,477.73864 -3.15,0" />
    <path
       style="fill:#840000;fill-opacity:0;stroke:#840000;stroke-width:0.53999943;stroke-linecap:round;stroke-linejoin:round;stroke-opacity:1"
       inkscape:connector-curvature="0"
       id="path1932"
       d="m 280.48064,477.73864 0,-5.4 -0.54,0.81 -0.54,0.45 -0.54,0.27" />
    <polyline
       transform="matrix(0.00899999,0,0,0.00899999,-132.0789,68.059092)"
       style="fill:#840000;fill-opacity:0;stroke:#840000;stroke-width:100;stroke-linecap:round;stroke-linejoin:round;stroke-opacity:1"
       id="polyline1936"
       points="44500,45250 44800,45790 46350,45790 46350,45250 46350,44710 44800,44710 44500,45250 " />
    <polyline
       transform="matrix(0.00899999,0,0,0.00899999,-132.0789,68.059092)"
       style="fill:#840000;fill-opacity:0;stroke:#840000;stroke-width:60;stroke-linecap:round;stroke-linejoin:round;stroke-opacity:1"
       id="polyline1942"
       points="40500,47750 39000,49250 39000,43250 40500,44750 " />
    <polyline
       transform="matrix(0.00899999,0,0,0.00899999,-132.0789,68.059092)"
       id="polyline1946"
       points="42500,47750 40500,47750 40500,44750 42500,44750 42500,47750 "
       style="fill:#840000;fill-opacity:1;fill-rule:evenodd;stroke:#840000;stroke-width:60;stroke-linecap:round;stroke-linejoin:round;stroke-opacity:1" />
    <path
       style="fill:#840000;fill-opacity:0;stroke:#840000;stroke-width:0.53999943;stroke-linecap:round;stroke-linejoin:round;stroke-opacity:1"
       inkscape:connector-curvature="0"
       id="path1950"
       d="m 250.42068,493.30862 17.99998,0" />
    <path
       style="fill:#008484;fill-opacity:0;stroke:#008484;stroke-width:0.53999943;stroke-linecap:round;stroke-linejoin:round;stroke-opacity:1"
       inkscape:connector-curvature="0"
       id="path1954"
       d="m 260.41066,492.22862 -1.97999,0" />
    <path
       style="fill:#008484;fill-opacity:0;stroke:#008484;stroke-width:0.53999943;stroke-linecap:round;stroke-linejoin:round;stroke-opacity:1"
       inkscape:connector-curvature="0"
       id="path1956"
       d="m 259.42067,492.22862 0,-3.59999 -0.36,0.54 -0.36,0.36 -0.27,0.18" />
    <path
       style="fill:#840000;fill-opacity:0;stroke:#840000;stroke-width:0.53999943;stroke-linecap:round;stroke-linejoin:round;stroke-opacity:1"
       inkscape:connector-curvature="0"
       id="path1960"
       d="m 250.42068,475.30864 17.99998,0" />
    <path
       style="fill:#008484;fill-opacity:0;stroke:#008484;stroke-width:0.53999943;stroke-linecap:round;stroke-linejoin:round;stroke-opacity:1"
       inkscape:connector-curvature="0"
       id="path1964"
       d="m 258.43067,470.98865 0.18,-0.18 0.27,-0.18 0.89999,0 0.36,0.18 0.18,0.18 0.09,0.36 0,0.36 -0.09,0.45 -2.06999,2.06999 2.15999,0" />
    <path
       style="fill:#008484;fill-opacity:0;stroke:#008484;stroke-width:0.53999943;stroke-linecap:round;stroke-linejoin:round;stroke-opacity:1"
       inkscape:connector-curvature="0"
       id="path1966"
       d="m 225.5807,494.83862 0.27,-0.63 0.18,-0.18 0.45,-0.18 0.63,0 0.45,0.18 0.18,0.18 0.27,0.45 0,1.71 -4.5,0 0,-1.53 0.18,-0.36 0.18,-0.27 0.45,-0.18 0.45,0 0.45,0.18 0.18,0.27 0.18,0.36 0,1.53" />
    <path
       style="fill:#008484;fill-opacity:0;stroke:#008484;stroke-width:0.53999943;stroke-linecap:round;stroke-linejoin:round;stroke-opacity:1"
       inkscape:connector-curvature="0"
       id="path1968"
       d="m 223.5107,491.86862 3.6,0 0.45,-0.18 0.18,-0.27 0.27,-0.36 0,-0.89999 -0.27,-0.45 -0.18,-0.18 -0.45,-0.18 -3.6,0" />
    <path
       style="fill:#008484;fill-opacity:0;stroke:#008484;stroke-width:0.53999943;stroke-linecap:round;stroke-linejoin:round;stroke-opacity:1"
       inkscape:connector-curvature="0"
       id="path1970"
       d="m 223.5107,487.63863 0,-2.97 4.5,2.97 0,-2.97" />
    <path
       style="fill:#008484;fill-opacity:0;stroke:#008484;stroke-width:0.53999943;stroke-linecap:round;stroke-linejoin:round;stroke-opacity:1"
       inkscape:connector-curvature="0"
       id="path1972"
       d="m 223.5107,483.31863 0,-2.96999 4.5,2.96999 0,-2.96999" />
    <path
       style="fill:#008484;fill-opacity:0;stroke:#008484;stroke-width:0.53999943;stroke-linecap:round;stroke-linejoin:round;stroke-opacity:1"
       inkscape:connector-curvature="0"
       id="path1974"
       d="m 225.5807,478.54864 0,-1.53" />
    <path
       style="fill:#008484;fill-opacity:0;stroke:#008484;stroke-width:0.53999943;stroke-linecap:round;stroke-linejoin:round;stroke-opacity:1"
       inkscape:connector-curvature="0"
       id="path1976"
       d="m 228.0107,476.38864 0,2.16 -4.5,0 0,-2.16" />
    <path
       style="fill:#008484;fill-opacity:0;stroke:#008484;stroke-width:0.53999943;stroke-linecap:round;stroke-linejoin:round;stroke-opacity:1"
       inkscape:connector-curvature="0"
       id="path1978"
       d="m 228.0107,471.97865 -2.16,1.43999" />
    <path
       style="fill:#008484;fill-opacity:0;stroke:#008484;stroke-width:0.53999943;stroke-linecap:round;stroke-linejoin:round;stroke-opacity:1"
       inkscape:connector-curvature="0"
       id="path1980"
       d="m 228.0107,474.49864 -4.5,0 0,-1.71 0.18,-0.45 0.18,-0.17999 0.45,-0.18 0.63,0 0.45,0.18 0.18,0.17999 0.27,0.45 0,1.71" />
    <path
       style="fill:#840000;fill-opacity:0;stroke:#840000;stroke-width:0.53999943;stroke-linecap:round;stroke-linejoin:round;stroke-opacity:1"
       inkscape:connector-curvature="0"
       id="path1984"
       d="m 241.60069,506.35861 -0.54,-0.27 -0.81,0 -0.72,0.27 -0.54,0.54 -0.27,0.45 -0.27,1.07999 0,0.72 0.27,1.08 0.27,0.54 0.54,0.45 0.72,0.27 0.54,0 0.81,-0.27 0.26999,-0.27 0,-1.8 -1.07999,0" />
    <path
       style="fill:#840000;fill-opacity:0;stroke:#840000;stroke-width:0.53999943;stroke-linecap:round;stroke-linejoin:round;stroke-opacity:1"
       inkscape:connector-curvature="0"
       id="path1986"
       d="m 244.12068,511.4886 0,-5.39999 3.15,5.39999 0,-5.39999" />
    <path
       style="fill:#840000;fill-opacity:0;stroke:#840000;stroke-width:0.53999943;stroke-linecap:round;stroke-linejoin:round;stroke-opacity:1"
       inkscape:connector-curvature="0"
       id="path1988"
       d="m 249.79068,511.4886 0,-5.39999 1.34999,0 0.72,0.27 0.54,0.54 0.27,0.45 0.27,1.07999 0,0.72 -0.27,1.08 -0.27,0.54 -0.54,0.45 -0.72,0.27 -1.34999,0" />
    <polyline
       transform="matrix(0.00899999,0,0,0.00899999,-132.0789,68.059092)"
       style="fill:#840000;fill-opacity:0;stroke:#840000;stroke-width:100;stroke-linecap:round;stroke-linejoin:round;stroke-opacity:1"
       id="polyline1992"
       points="43250,49000 42950,48460 40830,48460 40830,49000 40830,49540 42950,49540 43250,49000 " />
    <path
       style="fill:#008400;fill-opacity:0;stroke:#008400;stroke-width:0.53999943;stroke-linecap:round;stroke-linejoin:round;stroke-opacity:1"
       inkscape:connector-curvature="0"
       id="path2010"
       d="m 268.42066,493.30862 0,15.74998" />
    <path
       style="fill:#008400;fill-opacity:0;stroke:#008400;stroke-width:0.53999943;stroke-linecap:round;stroke-linejoin:round;stroke-opacity:1"
       inkscape:connector-curvature="0"
       id="path2012"
       d="m 268.42066,509.0586 -11.24999,0" />
    <path
       style="fill:#840000;fill-opacity:0;stroke:#840000;stroke-width:0.53999943;stroke-linecap:round;stroke-linejoin:round;stroke-opacity:1"
       inkscape:connector-curvature="0"
       id="path2170"
       d="m 276.07065,454.69866 -0.27,0.27 -0.81,0.27 -0.54,0 -0.72,-0.27 -0.54,-0.45 -0.27,-0.54 -0.27,-1.07999 0,-0.72 0.27,-1.08 0.27,-0.45 0.54,-0.54 0.72,-0.27 0.54,0 0.81,0.27 0.27,0.27" />
    <path
       style="fill:#840000;fill-opacity:0;stroke:#840000;stroke-width:0.53999943;stroke-linecap:round;stroke-linejoin:round;stroke-opacity:1"
       inkscape:connector-curvature="0"
       id="path2172"
       d="m 278.32064,455.23866 0,-5.39999" />
    <path
       style="fill:#840000;fill-opacity:0;stroke:#840000;stroke-width:0.53999943;stroke-linecap:round;stroke-linejoin:round;stroke-opacity:1"
       inkscape:connector-curvature="0"
       id="path2174"
       d="m 278.32064,452.44867 3.15,0" />
    <path
       style="fill:#840000;fill-opacity:0;stroke:#840000;stroke-width:0.53999943;stroke-linecap:round;stroke-linejoin:round;stroke-opacity:1"
       inkscape:connector-curvature="0"
       id="path2176"
       d="m 281.47064,455.23866 0,-5.39999" />
    <path
       style="fill:#840000;fill-opacity:0;stroke:#840000;stroke-width:0.53999943;stroke-linecap:round;stroke-linejoin:round;stroke-opacity:1"
       inkscape:connector-curvature="0"
       id="path2178"
       d="m 283.72064,450.37867 0.27,-0.27 0.54,-0.27 1.26,0 0.54,0.27 0.27,0.27 0.26999,0.54 0,0.45 -0.26999,0.81 -3.06,3.05999 3.32999,0" />
    <polyline
       transform="matrix(0.00899999,0,0,0.00899999,-132.0789,68.059092)"
       style="fill:#840000;fill-opacity:0;stroke:#840000;stroke-width:100;stroke-linecap:round;stroke-linejoin:round;stroke-opacity:1"
       id="polyline2182"
       points="44500,42750 44800,43290 46890,43290 46890,42750 46890,42210 44800,42210 44500,42750 " />
    <path
       style="fill:#008400;fill-opacity:0;stroke:#008400;stroke-width:0.53999943;stroke-linecap:round;stroke-linejoin:round;stroke-opacity:1"
       inkscape:connector-curvature="0"
       id="path2188"
       d="m 268.42066,452.80867 -6.75,0" />
    <path
       style="fill:#008400;fill-opacity:0;stroke:#008400;stroke-width:0.53999943;stroke-linecap:round;stroke-linejoin:round;stroke-opacity:1"
       inkscape:connector-curvature="0"
       id="path2190"
       d="m 261.67066,452.80867 0,22.49997" />
    <path
       style="fill:#008400;fill-opacity:0;stroke:#008400;stroke-width:0.53999943;stroke-linecap:round;stroke-linejoin:round;stroke-opacity:1"
       inkscape:connector-curvature="0"
       id="path2192"
       d="m 261.67066,475.30864 6.75,0" />
    <path
       style="fill:#840000;fill-opacity:0;stroke:#840000;stroke-width:0.53999943;stroke-linecap:round;stroke-linejoin:round;stroke-opacity:1"
       inkscape:connector-curvature="0"
       id="path2196"
       d="m 141.97079,473.23864 0,-5.39999 1.8,3.87 1.8,-3.87 0,5.39999" />
    <path
       style="fill:#840000;fill-opacity:0;stroke:#840000;stroke-width:0.53999943;stroke-linecap:round;stroke-linejoin:round;stroke-opacity:1"
       inkscape:connector-curvature="0"
       id="path2198"
       d="m 148.18079,473.23864 0,-5.39999" />
    <path
       style="fill:#840000;fill-opacity:0;stroke:#840000;stroke-width:0.53999943;stroke-linecap:round;stroke-linejoin:round;stroke-opacity:1"
       inkscape:connector-curvature="0"
       id="path2200"
       d="m 153.94078,472.69864 -0.27,0.27 -0.81,0.27 -0.54,0 -0.72,-0.27 -0.53999,-0.45 -0.27,-0.53999 -0.27,-1.08 0,-0.72 0.27,-1.08 0.27,-0.45 0.53999,-0.54 0.72,-0.27 0.54,0 0.81,0.27 0.27,0.27" />
    <polyline
       transform="matrix(0.00899999,0,0,0.00899999,-132.0789,68.059092)"
       style="fill:#840000;fill-opacity:0;stroke:#840000;stroke-width:100;stroke-linecap:round;stroke-linejoin:round;stroke-opacity:1"
       id="polyline2204"
       points="32250,44750 31950,44210 30080,44210 30080,44750 30080,45290 31950,45290 32250,44750 " />
    <path
       style="fill:#840000;fill-opacity:0;stroke:#840000;stroke-width:0.53999943;stroke-linecap:round;stroke-linejoin:round;stroke-opacity:1"
       inkscape:connector-curvature="0"
       id="path2208"
       d="m 144.85079,486.10863 -0.54,-0.27 -0.81,0 -0.72,0.27 -0.54,0.54 -0.27,0.45 -0.26999,1.08 0,0.72 0.26999,1.08 0.27,0.53999 0.54,0.45 0.72,0.27 0.54,0 0.81,-0.27 0.27,-0.27 0,-1.79999 -1.08,0" />
    <path
       style="fill:#840000;fill-opacity:0;stroke:#840000;stroke-width:0.53999943;stroke-linecap:round;stroke-linejoin:round;stroke-opacity:1"
       inkscape:connector-curvature="0"
       id="path2210"
       d="m 147.37079,491.23862 0,-5.39999 3.15,5.39999 0,-5.39999" />
    <path
       style="fill:#840000;fill-opacity:0;stroke:#840000;stroke-width:0.53999943;stroke-linecap:round;stroke-linejoin:round;stroke-opacity:1"
       inkscape:connector-curvature="0"
       id="path2212"
       d="m 153.04078,491.23862 0,-5.39999 1.35,0 0.72,0.27 0.54,0.54 0.27,0.45 0.27,1.08 0,0.72 -0.27,1.08 -0.27,0.53999 -0.54,0.45 -0.72,0.27 -1.35,0" />
    <polyline
       transform="matrix(0.00899999,0,0,0.00899999,-132.0789,68.059092)"
       style="fill:#840000;fill-opacity:0;stroke:#840000;stroke-width:100;stroke-linecap:round;stroke-linejoin:round;stroke-opacity:1"
       id="polyline2216"
       points="32500,46750 32200,46210 30080,46210 30080,46750 30080,47290 32200,47290 32500,46750 " />
    <circle
       style="fill:#840000;fill-opacity:0;stroke:#840000;stroke-width:0.53999943;stroke-linecap:round;stroke-linejoin:round;stroke-opacity:1"
       id="circle2222"
       r="1.799998"
       cy="488.80862"
       cx="173.92076" />
    <circle
       style="fill:#840000;fill-opacity:0;stroke:#840000;stroke-width:0.53999943;stroke-linecap:round;stroke-linejoin:round;stroke-opacity:1"
       id="circle2224"
       r="1.799998"
       cy="470.80865"
       cx="173.92076" />
    <rect
       style="fill:#840000;fill-opacity:0;stroke:#840000;stroke-width:0.53999943;stroke-linecap:round;stroke-linejoin:round;stroke-opacity:1"
       id="rect2226"
       rx="0"
       height="4.4999952"
       width="4.4999952"
       y="486.55862"
       x="171.67076" />
    <rect
       style="fill:#840000;fill-opacity:0;stroke:#840000;stroke-width:0.53999943;stroke-linecap:round;stroke-linejoin:round;stroke-opacity:1"
       id="rect2228"
       rx="0"
       height="4.4999952"
       width="4.4999952"
       y="468.55865"
       x="171.67076" />
    <polyline
       transform="matrix(0.00899999,0,0,0.00899999,-132.0789,68.059092)"
       style="fill:#840000;fill-opacity:0;stroke:#840000;stroke-width:60;stroke-linecap:round;stroke-linejoin:round;stroke-opacity:1"
       id="polyline2230"
       points="36000,44250 37000,44750 37000,46750 36000,47250 36000,47250 " />
    <polyline
       transform="matrix(0.00899999,0,0,0.00899999,-132.0789,68.059092)"
       style="fill:#840000;fill-opacity:0;stroke:#840000;stroke-width:60;stroke-linecap:round;stroke-linejoin:round;stroke-opacity:1"
       id="polyline2232"
       points="34000,44750 36000,44250 36000,47250 34000,46750 34000,44750 34000,44750 " />
    <path
       style="fill:#840000;fill-opacity:0;stroke:#840000;stroke-width:0.53999943;stroke-linecap:round;stroke-linejoin:round;stroke-opacity:1"
       inkscape:connector-curvature="0"
       id="path2234"
       d="m 173.92076,470.80865 -8.99999,0" />
    <path
       style="fill:#840000;fill-opacity:0;stroke:#840000;stroke-width:0.53999943;stroke-linecap:round;stroke-linejoin:round;stroke-opacity:1"
       inkscape:connector-curvature="0"
       id="path2236"
       d="m 161.86077,469.72865 0,-4.5 1.53,3.15 1.44,-3.15 0,4.5" />
    <path
       style="fill:#840000;fill-opacity:0;stroke:#840000;stroke-width:0.53999943;stroke-linecap:round;stroke-linejoin:round;stroke-opacity:1"
       inkscape:connector-curvature="0"
       id="path2238"
       d="m 166.99077,469.72865 0,-4.5" />
    <path
       style="fill:#840000;fill-opacity:0;stroke:#840000;stroke-width:0.53999943;stroke-linecap:round;stroke-linejoin:round;stroke-opacity:1"
       inkscape:connector-curvature="0"
       id="path2240"
       d="m 171.67076,469.27865 -0.18,0.18 -0.63,0.27 -0.45,0 -0.63,-0.27 -0.45,-0.45 -0.17999,-0.36 -0.18,-0.9 0,-0.63 0.18,-0.81 0.17999,-0.45 0.45,-0.45 0.63,-0.18 0.45,0 0.63,0.18 0.18,0.18" />
    <path
       style="fill:#840000;fill-opacity:0;stroke:#840000;stroke-width:0.53999943;stroke-linecap:round;stroke-linejoin:round;stroke-opacity:1"
       inkscape:connector-curvature="0"
       id="path2242"
       d="m 173.65076,468.01865 3.42,0" />
    <path
       style="fill:#840000;fill-opacity:0;stroke:#840000;stroke-width:0.53999943;stroke-linecap:round;stroke-linejoin:round;stroke-opacity:1"
       inkscape:connector-curvature="0"
       id="path2244"
       d="m 175.36076,469.72865 0,-3.42" />
    <path
       style="fill:#840000;fill-opacity:0;stroke:#840000;stroke-width:0.53999943;stroke-linecap:round;stroke-linejoin:round;stroke-opacity:1"
       inkscape:connector-curvature="0"
       id="path2246"
       d="m 173.92076,488.80863 -8.99999,0" />
    <path
       style="fill:#840000;fill-opacity:0;stroke:#840000;stroke-width:0.53999943;stroke-linecap:round;stroke-linejoin:round;stroke-opacity:1"
       inkscape:connector-curvature="0"
       id="path2248"
       d="m 161.86077,487.72863 0,-4.5 1.53,3.15 1.44,-3.15 0,4.5" />
    <path
       style="fill:#840000;fill-opacity:0;stroke:#840000;stroke-width:0.53999943;stroke-linecap:round;stroke-linejoin:round;stroke-opacity:1"
       inkscape:connector-curvature="0"
       id="path2250"
       d="m 166.99077,487.72863 0,-4.5" />
    <path
       style="fill:#840000;fill-opacity:0;stroke:#840000;stroke-width:0.53999943;stroke-linecap:round;stroke-linejoin:round;stroke-opacity:1"
       inkscape:connector-curvature="0"
       id="path2252"
       d="m 171.67076,487.27863 -0.18,0.18 -0.63,0.27 -0.45,0 -0.63,-0.27 -0.45,-0.45 -0.17999,-0.36 -0.18,-0.9 0,-0.63 0.18,-0.81 0.17999,-0.45 0.45,-0.45 0.63,-0.18 0.45,0 0.63,0.18 0.18,0.18" />
    <path
       style="fill:#840000;fill-opacity:0;stroke:#840000;stroke-width:0.53999943;stroke-linecap:round;stroke-linejoin:round;stroke-opacity:1"
       inkscape:connector-curvature="0"
       id="path2254"
       d="m 173.65076,486.01863 3.42,0" />
    <path
       style="fill:#008484;fill-opacity:0;stroke:#008484;stroke-width:0.53999943;stroke-linecap:round;stroke-linejoin:round;stroke-opacity:1"
       inkscape:connector-curvature="0"
       id="path2258"
       d="m 146.65079,502.21861 0,-5.39999 1.8,3.86999 1.8,-3.86999 0,5.39999" />
    <path
       style="fill:#008484;fill-opacity:0;stroke:#008484;stroke-width:0.53999943;stroke-linecap:round;stroke-linejoin:round;stroke-opacity:1"
       inkscape:connector-curvature="0"
       id="path2260"
       d="m 152.86078,502.21861 0,-5.39999" />
    <path
       style="fill:#008484;fill-opacity:0;stroke:#008484;stroke-width:0.53999943;stroke-linecap:round;stroke-linejoin:round;stroke-opacity:1"
       inkscape:connector-curvature="0"
       id="path2262"
       d="m 158.62078,501.67861 -0.27,0.27 -0.81,0.27 -0.54,0 -0.72,-0.27 -0.54,-0.45 -0.27,-0.54 -0.27,-1.08 0,-0.71999 0.27,-1.08 0.27,-0.45 0.54,-0.54 0.72,-0.27 0.54,0 0.81,0.27 0.27,0.27" />
    <path
       style="fill:#008484;fill-opacity:0;stroke:#008484;stroke-width:0.53999943;stroke-linecap:round;stroke-linejoin:round;stroke-opacity:1"
       inkscape:connector-curvature="0"
       id="path2264"
       d="m 164.02077,502.21861 -1.8,-2.52" />
    <path
       style="fill:#008484;fill-opacity:0;stroke:#008484;stroke-width:0.53999943;stroke-linecap:round;stroke-linejoin:round;stroke-opacity:1"
       inkscape:connector-curvature="0"
       id="path2266"
       d="m 160.87077,502.21861 0,-5.39999 2.07,0 0.54,0.27 0.27,0.27 0.27,0.54 0,0.72 -0.27,0.54 -0.27,0.26999 -0.54,0.27 -2.07,0" />
    <path
       style="fill:#008484;fill-opacity:0;stroke:#008484;stroke-width:0.53999943;stroke-linecap:round;stroke-linejoin:round;stroke-opacity:1"
       inkscape:connector-curvature="0"
       id="path2268"
       d="m 167.35077,496.81862 0.99,0 0.54,0.27 0.53999,0.54 0.18,0.99 0,1.79999 -0.18,1.08 -0.53999,0.45 -0.54,0.27 -0.99,0 -0.54,-0.27 -0.54,-0.45 -0.27,-1.08 0,-1.79999 0.27,-0.99 0.54,-0.54 0.54,-0.27" />
    <path
       style="fill:#008484;fill-opacity:0;stroke:#008484;stroke-width:0.53999943;stroke-linecap:round;stroke-linejoin:round;stroke-opacity:1"
       inkscape:connector-curvature="0"
       id="path2270"
       d="m 171.94076,502.21861 0,-5.39999 2.07,0 0.54,0.27 0.27,0.27 0.27,0.54 0,0.72 -0.27,0.54 -0.27,0.26999 -0.54,0.27 -2.07,0" />
    <path
       style="fill:#008484;fill-opacity:0;stroke:#008484;stroke-width:0.53999943;stroke-linecap:round;stroke-linejoin:round;stroke-opacity:1"
       inkscape:connector-curvature="0"
       id="path2272"
       d="m 177.34076,502.21861 0,-5.39999" />
    <path
       style="fill:#008484;fill-opacity:0;stroke:#008484;stroke-width:0.53999943;stroke-linecap:round;stroke-linejoin:round;stroke-opacity:1"
       inkscape:connector-curvature="0"
       id="path2274"
       d="m 177.34076,499.42861 3.14999,0" />
    <path
       style="fill:#008484;fill-opacity:0;stroke:#008484;stroke-width:0.53999943;stroke-linecap:round;stroke-linejoin:round;stroke-opacity:1"
       inkscape:connector-curvature="0"
       id="path2276"
       d="m 180.49075,502.21861 0,-5.39999" />
    <path
       style="fill:#008484;fill-opacity:0;stroke:#008484;stroke-width:0.53999943;stroke-linecap:round;stroke-linejoin:round;stroke-opacity:1"
       inkscape:connector-curvature="0"
       id="path2278"
       d="m 184.09075,496.81862 0.99,0 0.54,0.27 0.54,0.54 0.18,0.99 0,1.79999 -0.18,1.08 -0.54,0.45 -0.54,0.27 -0.99,0 -0.54,-0.27 -0.54,-0.45 -0.27,-1.08 0,-1.79999 0.27,-0.99 0.54,-0.54 0.54,-0.27" />
    <path
       style="fill:#008484;fill-opacity:0;stroke:#008484;stroke-width:0.53999943;stroke-linecap:round;stroke-linejoin:round;stroke-opacity:1"
       inkscape:connector-curvature="0"
       id="path2280"
       d="m 188.68074,502.21861 0,-5.39999 3.15,5.39999 0,-5.39999" />
    <path
       style="fill:#008484;fill-opacity:0;stroke:#008484;stroke-width:0.53999943;stroke-linecap:round;stroke-linejoin:round;stroke-opacity:1"
       inkscape:connector-curvature="0"
       id="path2282"
       d="m 194.35074,499.42861 1.8,0" />
    <path
       style="fill:#008484;fill-opacity:0;stroke:#008484;stroke-width:0.53999943;stroke-linecap:round;stroke-linejoin:round;stroke-opacity:1"
       inkscape:connector-curvature="0"
       id="path2284"
       d="m 196.96073,502.21861 -2.60999,0 0,-5.39999 2.60999,0" />
    <path
       style="fill:#008400;fill-opacity:0;stroke:#008400;stroke-width:0.53999943;stroke-linecap:round;stroke-linejoin:round;stroke-opacity:1"
       inkscape:connector-curvature="0"
       id="path2288"
       d="m 160.42077,488.80863 4.5,0" />
    <path
       style="fill:#008400;fill-opacity:0;stroke:#008400;stroke-width:0.53999943;stroke-linecap:round;stroke-linejoin:round;stroke-opacity:1"
       inkscape:connector-curvature="0"
       id="path2290"
       d="m 158.17078,470.80865 6.74999,0" />
  </g>
</svg>
